<?xml version="1.0" encoding="UTF-8" standalone="no"?>
<svg
   xmlns:dc="http://purl.org/dc/elements/1.1/"
   xmlns:cc="http://creativecommons.org/ns#"
   xmlns:rdf="http://www.w3.org/1999/02/22-rdf-syntax-ns#"
   xmlns:svg="http://www.w3.org/2000/svg"
   xmlns="http://www.w3.org/2000/svg"
   xmlns:sodipodi="http://sodipodi.sourceforge.net/DTD/sodipodi-0.dtd"
   xmlns:inkscape="http://www.inkscape.org/namespaces/inkscape"
   version="1.1"
   width="70.051643mm"
   height="50.050922mm"
   viewBox="0 0 27579.387 19705.087"
   id="svg486"
   sodipodi:docname="bikelight-brd.svg"
   inkscape:version="0.92.3 (2405546, 2018-03-11)">
  <metadata
     id="metadata492">
    <rdf:RDF>
      <cc:Work
         rdf:about="">
        <dc:format>image/svg+xml</dc:format>
        <dc:type
           rdf:resource="http://purl.org/dc/dcmitype/StillImage" />
        <dc:title>SVG Picture created as bikelight-brd.svg date 2020/09/26 15:22:31 </dc:title>
      </cc:Work>
    </rdf:RDF>
  </metadata>
  <defs
     id="defs490" />
  <sodipodi:namedview
     pagecolor="#ffffff"
     bordercolor="#666666"
     borderopacity="1"
     objecttolerance="10"
     gridtolerance="10"
     guidetolerance="10"
     inkscape:pageopacity="0"
     inkscape:pageshadow="2"
     inkscape:window-width="2493"
     inkscape:window-height="1385"
     id="namedview488"
     showgrid="false"
     units="mm"
     fit-margin-top="1"
     fit-margin-left="1"
     fit-margin-right="1"
     fit-margin-bottom="1"
     inkscape:zoom="4.803778"
     inkscape:cx="116.31237"
     inkscape:cy="71.61709"
     inkscape:window-x="67"
     inkscape:window-y="27"
     inkscape:window-maximized="1"
     inkscape:current-layer="layer1" />
  <title
     id="title2">SVG Picture created as bikelight-brd.svg date 2020/09/26 15:22:31 </title>
  <desc
     id="desc4">Picture generated by PCBNEW </desc>
  <g
     inkscape:groupmode="layer"
     id="layer1"
     inkscape:label="traces"
     style="display:inline"
     transform="translate(-1734.4567,-383.45672)">
    <g
       style="fill:#000000;fill-opacity:1;stroke:#000000;stroke-linecap:round;stroke-linejoin:round;stroke-opacity:1"
       id="g6" />
    <g
       style="fill:#000000;fill-opacity:0;stroke:#000000;stroke-width:-0.0003937;stroke-linecap:round;stroke-linejoin:round;stroke-opacity:1"
       id="g368">
      <g
         id="g8" />
      <g
         id="g10" />
      <g
         id="g12" />
      <g
         id="g14" />
      <g
         id="g16" />
      <g
         style="fill:#000000;fill-opacity:0;stroke:#000000;stroke-width:-0.0003937;stroke-linecap:round;stroke-linejoin:round;stroke-opacity:1"
         id="g18" />
      <g
         style="fill:#000000;fill-opacity:0;stroke:#000000;stroke-width:0;stroke-linecap:round;stroke-linejoin:round;stroke-opacity:1"
         id="g20" />
      <g
         style="fill:#000000;fill-opacity:1;stroke:#000000;stroke-width:0;stroke-linecap:round;stroke-linejoin:round;stroke-opacity:1"
         id="g26">
        <path
           style="fill:#000000;fill-opacity:1;fill-rule:evenodd;stroke:#000000;stroke-width:0;stroke-linecap:round;stroke-linejoin:round;stroke-opacity:1"
           d="m 7144.15,8642.72 v -750 h 500 v 750 z"
           id="path22"
           inkscape:connector-curvature="0" />
        <path
           style="fill:#000000;fill-opacity:1;fill-rule:evenodd;stroke:#000000;stroke-width:0;stroke-linecap:round;stroke-linejoin:round;stroke-opacity:1"
           d="m 8444.15,8642.72 v -750 h 500 v 750 z"
           id="path24"
           inkscape:connector-curvature="0" />
      </g>
      <g
         id="g28" />
      <g
         style="fill:#000000;fill-opacity:1;stroke:#000000;stroke-width:0;stroke-linecap:round;stroke-linejoin:round;stroke-opacity:1"
         id="g34">
        <path
           style="fill:#000000;fill-opacity:1;fill-rule:evenodd;stroke:#000000;stroke-width:0;stroke-linecap:round;stroke-linejoin:round;stroke-opacity:1"
           d="m 14624.5,8642.72 v -750 h 500 v 750 z"
           id="path30"
           inkscape:connector-curvature="0" />
        <path
           style="fill:#000000;fill-opacity:1;fill-rule:evenodd;stroke:#000000;stroke-width:0;stroke-linecap:round;stroke-linejoin:round;stroke-opacity:1"
           d="m 15924.5,8642.72 v -750 h 500 v 750 z"
           id="path32"
           inkscape:connector-curvature="0" />
      </g>
      <g
         id="g36" />
      <g
         style="fill:#000000;fill-opacity:1;stroke:#000000;stroke-width:0;stroke-linecap:round;stroke-linejoin:round;stroke-opacity:1"
         id="g42">
        <path
           style="fill:#000000;fill-opacity:1;fill-rule:evenodd;stroke:#000000;stroke-width:0;stroke-linecap:round;stroke-linejoin:round;stroke-opacity:1"
           d="m 8444.15,12579.7 v -750 h 500 v 750 z"
           id="path38"
           inkscape:connector-curvature="0" />
        <path
           style="fill:#000000;fill-opacity:1;fill-rule:evenodd;stroke:#000000;stroke-width:0;stroke-linecap:round;stroke-linejoin:round;stroke-opacity:1"
           d="m 7144.15,12579.7 v -750 h 500 v 750 z"
           id="path40"
           inkscape:connector-curvature="0" />
      </g>
      <g
         id="g44" />
      <g
         style="fill:#000000;fill-opacity:1;stroke:#000000;stroke-width:0;stroke-linecap:round;stroke-linejoin:round;stroke-opacity:1"
         id="g50">
        <path
           style="fill:#000000;fill-opacity:1;fill-rule:evenodd;stroke:#000000;stroke-width:0;stroke-linecap:round;stroke-linejoin:round;stroke-opacity:1"
           d="m 8944.15,6711.61 v 750 h -500 v -750 z"
           id="path46"
           inkscape:connector-curvature="0" />
        <path
           style="fill:#000000;fill-opacity:1;fill-rule:evenodd;stroke:#000000;stroke-width:0;stroke-linecap:round;stroke-linejoin:round;stroke-opacity:1"
           d="m 7644.15,6711.61 v 750 h -500 v -750 z"
           id="path48"
           inkscape:connector-curvature="0" />
      </g>
      <g
         id="g52" />
      <g
         style="fill:#000000;fill-opacity:1;stroke:#000000;stroke-width:0;stroke-linecap:round;stroke-linejoin:round;stroke-opacity:1"
         id="g58">
        <path
           style="fill:#000000;fill-opacity:1;fill-rule:evenodd;stroke:#000000;stroke-width:0;stroke-linecap:round;stroke-linejoin:round;stroke-opacity:1"
           d="m 24179.6,1593.5 v 750 h -500 v -750 z"
           id="path54"
           inkscape:connector-curvature="0" />
        <path
           style="fill:#000000;fill-opacity:1;fill-rule:evenodd;stroke:#000000;stroke-width:0;stroke-linecap:round;stroke-linejoin:round;stroke-opacity:1"
           d="m 25479.6,1593.5 v 750 h -500 v -750 z"
           id="path56"
           inkscape:connector-curvature="0" />
      </g>
      <g
         id="g60" />
      <g
         style="fill:#000000;fill-opacity:1;stroke:#000000;stroke-width:0;stroke-linecap:round;stroke-linejoin:round;stroke-opacity:1"
         id="g66">
        <path
           style="fill:#000000;fill-opacity:1;fill-rule:evenodd;stroke:#000000;stroke-width:0;stroke-linecap:round;stroke-linejoin:round;stroke-opacity:1"
           d="m 5569.35,2343.5 v -750 h 500 v 750 z"
           id="path62"
           inkscape:connector-curvature="0" />
        <path
           style="fill:#000000;fill-opacity:1;fill-rule:evenodd;stroke:#000000;stroke-width:0;stroke-linecap:round;stroke-linejoin:round;stroke-opacity:1"
           d="m 6869.35,2343.5 v -750 h 500 v 750 z"
           id="path64"
           inkscape:connector-curvature="0" />
      </g>
      <g
         id="g68" />
      <g
         style="fill:#000000;fill-opacity:1;stroke:#000000;stroke-width:0;stroke-linecap:round;stroke-linejoin:round;stroke-opacity:1"
         id="g74">
        <path
           style="fill:#000000;fill-opacity:1;fill-rule:evenodd;stroke:#000000;stroke-width:0;stroke-linecap:round;stroke-linejoin:round;stroke-opacity:1"
           d="m 6869.35,18878.9 v -750 h 500 v 750 z"
           id="path70"
           inkscape:connector-curvature="0" />
        <path
           style="fill:#000000;fill-opacity:1;fill-rule:evenodd;stroke:#000000;stroke-width:0;stroke-linecap:round;stroke-linejoin:round;stroke-opacity:1"
           d="m 5569.35,18878.9 v -750 h 500 v 750 z"
           id="path72"
           inkscape:connector-curvature="0" />
      </g>
      <g
         id="g76" />
      <g
         style="fill:#000000;fill-opacity:1;stroke:#000000;stroke-width:0;stroke-linecap:round;stroke-linejoin:round;stroke-opacity:1"
         id="g82">
        <path
           style="fill:#000000;fill-opacity:1;fill-rule:evenodd;stroke:#000000;stroke-width:0;stroke-linecap:round;stroke-linejoin:round;stroke-opacity:1"
           d="m 25479.6,18128.9 v 750 h -500 v -750 z"
           id="path78"
           inkscape:connector-curvature="0" />
        <path
           style="fill:#000000;fill-opacity:1;fill-rule:evenodd;stroke:#000000;stroke-width:0;stroke-linecap:round;stroke-linejoin:round;stroke-opacity:1"
           d="m 24179.6,18128.9 v 750 h -500 v -750 z"
           id="path80"
           inkscape:connector-curvature="0" />
      </g>
      <g
         id="g84" />
      <g
         style="fill:#000000;fill-opacity:1;stroke:#000000;stroke-width:0;stroke-linecap:round;stroke-linejoin:round;stroke-opacity:1"
         id="g90">
        <path
           style="fill:#000000;fill-opacity:1;fill-rule:evenodd;stroke:#000000;stroke-width:0;stroke-linecap:round;stroke-linejoin:round;stroke-opacity:1"
           d="M 23792.2,10090.6 V 9381.89 H 25367 v 708.71 z"
           id="path86"
           inkscape:connector-curvature="0" />
        <path
           style="fill:#000000;fill-opacity:1;fill-rule:evenodd;stroke:#000000;stroke-width:0;stroke-linecap:round;stroke-linejoin:round;stroke-opacity:1"
           d="m 23792.2,11090.6 v -708.7 H 25367 v 708.7 z"
           id="path88"
           inkscape:connector-curvature="0" />
      </g>
      <g
         id="g92" />
      <g
         style="fill:#000000;fill-opacity:1;stroke:#000000;stroke-width:0;stroke-linecap:round;stroke-linejoin:round;stroke-opacity:1"
         id="g116">
        <path
           style="fill:#000000;fill-opacity:1;fill-rule:evenodd;stroke:#000000;stroke-width:0;stroke-linecap:round;stroke-linejoin:round;stroke-opacity:1"
           d="m 3418.17,4271.65 h 629.92 v 826.78 h -629.92 z"
           id="path94"
           inkscape:connector-curvature="0" />
        <path
           style="fill:#000000;fill-opacity:1;fill-rule:evenodd;stroke:#000000;stroke-width:0;stroke-linecap:round;stroke-linejoin:round;stroke-opacity:1"
           d="m 3418.17,6712.6 h 629.92 v 826.77 h -629.92 z"
           id="path96"
           inkscape:connector-curvature="0" />
        <path
           style="fill:#000000;fill-opacity:1;fill-rule:evenodd;stroke:#000000;stroke-width:0;stroke-linecap:round;stroke-linejoin:round;stroke-opacity:1"
           d="m 3516.59,5856.3 h 531.5 v 98.42 h -531.5 z"
           id="path98"
           inkscape:connector-curvature="0" />
        <path
           style="fill:#000000;fill-opacity:1;fill-rule:evenodd;stroke:#000000;stroke-width:0;stroke-linecap:round;stroke-linejoin:round;stroke-opacity:1"
           d="m 3516.59,5600.39 h 531.5 v 98.43 h -531.5 z"
           id="path100"
           inkscape:connector-curvature="0" />
        <path
           style="fill:#000000;fill-opacity:1;fill-rule:evenodd;stroke:#000000;stroke-width:0;stroke-linecap:round;stroke-linejoin:round;stroke-opacity:1"
           d="m 3516.59,5344.49 h 531.5 v 98.42 h -531.5 z"
           id="path102"
           inkscape:connector-curvature="0" />
        <path
           style="fill:#000000;fill-opacity:1;fill-rule:evenodd;stroke:#000000;stroke-width:0;stroke-linecap:round;stroke-linejoin:round;stroke-opacity:1"
           d="m 3516.59,6112.2 h 531.5 v 98.43 h -531.5 z"
           id="path104"
           inkscape:connector-curvature="0" />
        <path
           style="fill:#000000;fill-opacity:1;fill-rule:evenodd;stroke:#000000;stroke-width:0;stroke-linecap:round;stroke-linejoin:round;stroke-opacity:1"
           d="m 3516.59,6368.11 h 531.5 v 98.43 h -531.5 z"
           id="path106"
           inkscape:connector-curvature="0" />
        <path
           style="fill:#000000;fill-opacity:1;fill-rule:evenodd;stroke:#000000;stroke-width:0;stroke-linecap:round;stroke-linejoin:round;stroke-opacity:1"
           d="m 2355.17,7047.24 h 748.04 v 708.67 h -748.04 z"
           id="path108"
           inkscape:connector-curvature="0" />
        <path
           style="fill:#000000;fill-opacity:1;fill-rule:evenodd;stroke:#000000;stroke-width:0;stroke-linecap:round;stroke-linejoin:round;stroke-opacity:1"
           d="m 2355.17,4055.12 h 748.04 v 708.66 h -748.04 z"
           id="path110"
           inkscape:connector-curvature="0" />
        <path
           style="fill:#000000;fill-opacity:1;fill-rule:evenodd;stroke:#000000;stroke-width:0;stroke-linecap:round;stroke-linejoin:round;stroke-opacity:1"
           d="m 2355.17,5078.74 h 748.04 v 708.66 h -748.04 z"
           id="path112"
           inkscape:connector-curvature="0" />
        <path
           style="fill:#000000;fill-opacity:1;fill-rule:evenodd;stroke:#000000;stroke-width:0;stroke-linecap:round;stroke-linejoin:round;stroke-opacity:1"
           d="m 2355.17,6023.62 h 748.04 v 708.66 h -748.04 z"
           id="path114"
           inkscape:connector-curvature="0" />
      </g>
      <g
         id="g118" />
      <g
         style="fill:#000000;fill-opacity:1;stroke:#000000;stroke-width:0;stroke-linecap:round;stroke-linejoin:round;stroke-opacity:1"
         id="g124">
        <path
           style="fill:#000000;fill-opacity:1;fill-rule:evenodd;stroke:#000000;stroke-width:0;stroke-linecap:round;stroke-linejoin:round;stroke-opacity:1"
           d="m 21842.4,10636.2 h 750 v 500 h -750 z"
           id="path120"
           inkscape:connector-curvature="0" />
        <path
           style="fill:#000000;fill-opacity:1;fill-rule:evenodd;stroke:#000000;stroke-width:0;stroke-linecap:round;stroke-linejoin:round;stroke-opacity:1"
           d="m 21842.4,9336.22 h 750 v 500 h -750 z"
           id="path122"
           inkscape:connector-curvature="0" />
      </g>
      <g
         id="g126" />
      <g
         style="fill:#000000;fill-opacity:1;stroke:#000000;stroke-width:0;stroke-linecap:round;stroke-linejoin:round;stroke-opacity:1"
         id="g132">
        <path
           style="fill:#000000;fill-opacity:1;fill-rule:evenodd;stroke:#000000;stroke-width:0;stroke-linecap:round;stroke-linejoin:round;stroke-opacity:1"
           d="m 9900.06,7461.61 v -750 h 500.04 v 750 z"
           id="path128"
           inkscape:connector-curvature="0" />
        <path
           style="fill:#000000;fill-opacity:1;fill-rule:evenodd;stroke:#000000;stroke-width:0;stroke-linecap:round;stroke-linejoin:round;stroke-opacity:1"
           d="m 11200.1,7461.61 v -750 h 500 v 750 z"
           id="path130"
           inkscape:connector-curvature="0" />
      </g>
      <g
         id="g134" />
      <g
         style="fill:#000000;fill-opacity:1;stroke:#000000;stroke-width:0;stroke-linecap:round;stroke-linejoin:round;stroke-opacity:1"
         id="g140">
        <path
           style="fill:#000000;fill-opacity:1;fill-rule:evenodd;stroke:#000000;stroke-width:0;stroke-linecap:round;stroke-linejoin:round;stroke-opacity:1"
           d="m 9900.06,8642.72 v -750 h 500.04 v 750 z"
           id="path136"
           inkscape:connector-curvature="0" />
        <path
           style="fill:#000000;fill-opacity:1;fill-rule:evenodd;stroke:#000000;stroke-width:0;stroke-linecap:round;stroke-linejoin:round;stroke-opacity:1"
           d="m 11200.1,8642.72 v -750 h 500 v 750 z"
           id="path138"
           inkscape:connector-curvature="0" />
      </g>
      <g
         id="g142" />
      <g
         style="fill:#000000;fill-opacity:1;stroke:#000000;stroke-width:0;stroke-linecap:round;stroke-linejoin:round;stroke-opacity:1"
         id="g148">
        <path
           style="fill:#000000;fill-opacity:1;fill-rule:evenodd;stroke:#000000;stroke-width:0;stroke-linecap:round;stroke-linejoin:round;stroke-opacity:1"
           d="m 23679.6,3524.61 v -750 h 500 v 750 z"
           id="path144"
           inkscape:connector-curvature="0" />
        <path
           style="fill:#000000;fill-opacity:1;fill-rule:evenodd;stroke:#000000;stroke-width:0;stroke-linecap:round;stroke-linejoin:round;stroke-opacity:1"
           d="m 24979.6,3524.61 v -750 h 500 v 750 z"
           id="path146"
           inkscape:connector-curvature="0" />
      </g>
      <g
         id="g150" />
      <g
         style="fill:#000000;fill-opacity:1;stroke:#000000;stroke-width:0;stroke-linecap:round;stroke-linejoin:round;stroke-opacity:1"
         id="g156">
        <path
           style="fill:#000000;fill-opacity:1;fill-rule:evenodd;stroke:#000000;stroke-width:0;stroke-linecap:round;stroke-linejoin:round;stroke-opacity:1"
           d="m 6069.35,2774.61 v 750 h -500 v -750 z"
           id="path152"
           inkscape:connector-curvature="0" />
        <path
           style="fill:#000000;fill-opacity:1;fill-rule:evenodd;stroke:#000000;stroke-width:0;stroke-linecap:round;stroke-linejoin:round;stroke-opacity:1"
           d="m 7369.35,2774.61 v 750 h -500 v -750 z"
           id="path154"
           inkscape:connector-curvature="0" />
      </g>
      <g
         id="g158" />
      <g
         style="fill:#000000;fill-opacity:1;stroke:#000000;stroke-width:0;stroke-linecap:round;stroke-linejoin:round;stroke-opacity:1"
         id="g164">
        <path
           style="fill:#000000;fill-opacity:1;fill-rule:evenodd;stroke:#000000;stroke-width:0;stroke-linecap:round;stroke-linejoin:round;stroke-opacity:1"
           d="m 7369.35,16947.8 v 750 h -500 v -750 z"
           id="path160"
           inkscape:connector-curvature="0" />
        <path
           style="fill:#000000;fill-opacity:1;fill-rule:evenodd;stroke:#000000;stroke-width:0;stroke-linecap:round;stroke-linejoin:round;stroke-opacity:1"
           d="m 6069.35,16947.8 v 750 h -500 v -750 z"
           id="path162"
           inkscape:connector-curvature="0" />
      </g>
      <g
         id="g166" />
      <g
         style="fill:#000000;fill-opacity:1;stroke:#000000;stroke-width:0;stroke-linecap:round;stroke-linejoin:round;stroke-opacity:1"
         id="g172">
        <path
           style="fill:#000000;fill-opacity:1;fill-rule:evenodd;stroke:#000000;stroke-width:0;stroke-linecap:round;stroke-linejoin:round;stroke-opacity:1"
           d="m 24979.6,17697.8 v -750 h 500 v 750 z"
           id="path168"
           inkscape:connector-curvature="0" />
        <path
           style="fill:#000000;fill-opacity:1;fill-rule:evenodd;stroke:#000000;stroke-width:0;stroke-linecap:round;stroke-linejoin:round;stroke-opacity:1"
           d="m 23679.6,17697.8 v -750 h 500 v 750 z"
           id="path170"
           inkscape:connector-curvature="0" />
      </g>
      <g
         id="g174" />
      <g
         style="fill:#000000;fill-opacity:1;stroke:#000000;stroke-width:0;stroke-linecap:round;stroke-linejoin:round;stroke-opacity:1"
         id="g182">
        <path
           style="fill:#000000;fill-opacity:1;fill-rule:evenodd;stroke:#000000;stroke-width:0;stroke-linecap:round;stroke-linejoin:round;stroke-opacity:1"
           d="m 2968.74,13816.9 v -500 h 1000 v 500 z"
           id="path176"
           inkscape:connector-curvature="0" />
        <path
           style="fill:#000000;fill-opacity:1;fill-rule:evenodd;stroke:#000000;stroke-width:0;stroke-linecap:round;stroke-linejoin:round;stroke-opacity:1"
           d="m 2968.74,14816.9 v -500 h 1000 v 500 z"
           id="path178"
           inkscape:connector-curvature="0" />
        <path
           style="fill:#000000;fill-opacity:1;fill-rule:evenodd;stroke:#000000;stroke-width:0;stroke-linecap:round;stroke-linejoin:round;stroke-opacity:1"
           d="m 2968.74,15816.9 v -500 h 1000 v 500 z"
           id="path180"
           inkscape:connector-curvature="0" />
      </g>
      <g
         id="g184" />
      <g
         style="fill:#000000;fill-opacity:1;stroke:#000000;stroke-width:0;stroke-linecap:round;stroke-linejoin:round;stroke-opacity:1"
         id="g202">
        <path
           style="fill:#000000;fill-opacity:1;fill-rule:evenodd;stroke:#000000;stroke-width:0;stroke-linecap:round;stroke-linejoin:round;stroke-opacity:1"
           d="m 14880.6,9368.39 5.8,0.85 5.6,1.41 5.5,1.96 5.2,2.47 5,2.98 4.6,3.45 4.3,3.9 3.9,4.29 3.5,4.66 2.9,4.97 2.5,5.24 2,5.45 1.4,5.62 0.8,5.74 0.3,5.79 v 118.11 l -0.3,5.78 -0.8,5.74 -1.4,5.62 -2,5.46 -2.5,5.23 -2.9,4.98 -3.5,4.65 -3.9,4.29 -4.3,3.9 -4.6,3.45 -5,2.98 -5.2,2.48 -5.5,1.95 -5.6,1.41 -5.8,0.85 -5.7,0.28 h -649.6 l -5.8,-0.28 -5.8,-0.85 -5.6,-1.41 -5.4,-1.95 -5.3,-2.48 -5,-2.98 -4.6,-3.45 -4.3,-3.9 -3.9,-4.29 -3.4,-4.65 -3,-4.98 -2.5,-5.23 -2,-5.46 -1.4,-5.62 -0.8,-5.74 -0.3,-5.78 v -118.11 l 0.3,-5.79 0.8,-5.74 1.4,-5.62 2,-5.45 2.5,-5.24 3,-4.97 3.4,-4.66 3.9,-4.29 4.3,-3.9 4.6,-3.45 5,-2.98 5.3,-2.47 5.4,-1.96 5.6,-1.41 5.8,-0.85 5.8,-0.28 h 649.6 z"
           id="path186"
           inkscape:connector-curvature="0" />
        <path
           style="fill:#000000;fill-opacity:1;fill-rule:evenodd;stroke:#000000;stroke-width:0;stroke-linecap:round;stroke-linejoin:round;stroke-opacity:1"
           d="m 14880.6,9868.39 5.8,0.85 5.6,1.41 5.5,1.96 5.2,2.47 5,2.98 4.6,3.45 4.3,3.9 3.9,4.29 3.5,4.66 2.9,4.97 2.5,5.24 2,5.45 1.4,5.62 0.8,5.74 0.3,5.79 v 118.13 l -0.3,5.8 -0.8,5.7 -1.4,5.6 -2,5.5 -2.5,5.2 -2.9,5 -3.5,4.6 -3.9,4.3 -4.3,3.9 -4.6,3.5 -5,3 -5.2,2.4 -5.5,2 -5.6,1.4 -5.8,0.8 -5.7,0.3 h -649.6 l -5.8,-0.3 -5.8,-0.8 -5.6,-1.4 -5.4,-2 -5.3,-2.4 -5,-3 -4.6,-3.5 -4.3,-3.9 -3.9,-4.3 -3.4,-4.6 -3,-5 -2.5,-5.2 -2,-5.5 -1.4,-5.6 -0.8,-5.7 -0.3,-5.8 v -118.13 l 0.3,-5.79 0.8,-5.74 1.4,-5.62 2,-5.45 2.5,-5.24 3,-4.97 3.4,-4.66 3.9,-4.29 4.3,-3.9 4.6,-3.45 5,-2.98 5.3,-2.47 5.4,-1.96 5.6,-1.41 5.8,-0.85 5.8,-0.28 h 649.6 z"
           id="path188"
           inkscape:connector-curvature="0" />
        <path
           style="fill:#000000;fill-opacity:1;fill-rule:evenodd;stroke:#000000;stroke-width:0;stroke-linecap:round;stroke-linejoin:round;stroke-opacity:1"
           d="m 14880.6,10368.4 5.8,0.8 5.6,1.5 5.5,1.9 5.2,2.5 5,3 4.6,3.4 4.3,3.9 3.9,4.3 3.5,4.7 2.9,4.9 2.5,5.3 2,5.4 1.4,5.6 0.8,5.8 0.3,5.8 v 118.1 l -0.3,5.8 -0.8,5.7 -1.4,5.6 -2,5.5 -2.5,5.2 -2.9,5 -3.5,4.6 -3.9,4.3 -4.3,3.9 -4.6,3.5 -5,3 -5.2,2.4 -5.5,2 -5.6,1.4 -5.8,0.8 -5.7,0.3 h -649.6 l -5.8,-0.3 -5.8,-0.8 -5.6,-1.4 -5.4,-2 -5.3,-2.4 -5,-3 -4.6,-3.5 -4.3,-3.9 -3.9,-4.3 -3.4,-4.6 -3,-5 -2.5,-5.2 -2,-5.5 -1.4,-5.6 -0.8,-5.7 -0.3,-5.8 v -118.1 l 0.3,-5.8 0.8,-5.8 1.4,-5.6 2,-5.4 2.5,-5.3 3,-4.9 3.4,-4.7 3.9,-4.3 4.3,-3.9 4.6,-3.4 5,-3 5.3,-2.5 5.4,-1.9 5.6,-1.5 5.8,-0.8 5.8,-0.3 h 649.6 z"
           id="path190"
           inkscape:connector-curvature="0" />
        <path
           style="fill:#000000;fill-opacity:1;fill-rule:evenodd;stroke:#000000;stroke-width:0;stroke-linecap:round;stroke-linejoin:round;stroke-opacity:1"
           d="m 14880.6,10868.4 5.8,0.8 5.6,1.5 5.5,1.9 5.2,2.5 5,3 4.6,3.4 4.3,3.9 3.9,4.3 3.5,4.7 2.9,4.9 2.5,5.3 2,5.4 1.4,5.6 0.8,5.8 0.3,5.8 v 118.1 l -0.3,5.8 -0.8,5.7 -1.4,5.6 -2,5.5 -2.5,5.2 -2.9,5 -3.5,4.6 -3.9,4.3 -4.3,3.9 -4.6,3.5 -5,3 -5.2,2.4 -5.5,2 -5.6,1.4 -5.8,0.8 -5.7,0.3 h -649.6 l -5.8,-0.3 -5.8,-0.8 -5.6,-1.4 -5.4,-2 -5.3,-2.4 -5,-3 -4.6,-3.5 -4.3,-3.9 -3.9,-4.3 -3.4,-4.6 -3,-5 -2.5,-5.2 -2,-5.5 -1.4,-5.6 -0.8,-5.7 -0.3,-5.8 v -118.1 l 0.3,-5.8 0.8,-5.8 1.4,-5.6 2,-5.4 2.5,-5.3 3,-4.9 3.4,-4.7 3.9,-4.3 4.3,-3.9 4.6,-3.4 5,-3 5.3,-2.5 5.4,-1.9 5.6,-1.5 5.8,-0.8 5.8,-0.3 h 649.6 z"
           id="path192"
           inkscape:connector-curvature="0" />
        <path
           style="fill:#000000;fill-opacity:1;fill-rule:evenodd;stroke:#000000;stroke-width:0;stroke-linecap:round;stroke-linejoin:round;stroke-opacity:1"
           d="m 16829.5,10868.4 5.7,0.8 5.6,1.5 5.5,1.9 5.2,2.5 5,3 4.6,3.4 4.3,3.9 3.9,4.3 3.5,4.7 3,4.9 2.4,5.3 2,5.4 1.4,5.6 0.8,5.8 0.3,5.8 v 118.1 l -0.3,5.8 -0.8,5.7 -1.4,5.6 -2,5.5 -2.4,5.2 -3,5 -3.5,4.6 -3.9,4.3 -4.3,3.9 -4.6,3.5 -5,3 -5.2,2.4 -5.5,2 -5.6,1.4 -5.7,0.8 -5.8,0.3 h -649.6 l -5.8,-0.3 -5.7,-0.8 -5.7,-1.4 -5.4,-2 -5.3,-2.4 -4.9,-3 -4.7,-3.5 -4.3,-3.9 -3.9,-4.3 -3.4,-4.6 -3,-5 -2.5,-5.2 -1.9,-5.5 -1.4,-5.6 -0.9,-5.7 -0.3,-5.8 v -118.1 l 0.3,-5.8 0.9,-5.8 1.4,-5.6 1.9,-5.4 2.5,-5.3 3,-4.9 3.4,-4.7 3.9,-4.3 4.3,-3.9 4.7,-3.4 4.9,-3 5.3,-2.5 5.4,-1.9 5.7,-1.5 5.7,-0.8 5.8,-0.3 h 649.6 z"
           id="path194"
           inkscape:connector-curvature="0" />
        <path
           style="fill:#000000;fill-opacity:1;fill-rule:evenodd;stroke:#000000;stroke-width:0;stroke-linecap:round;stroke-linejoin:round;stroke-opacity:1"
           d="m 16829.5,10368.4 5.7,0.8 5.6,1.5 5.5,1.9 5.2,2.5 5,3 4.6,3.4 4.3,3.9 3.9,4.3 3.5,4.7 3,4.9 2.4,5.3 2,5.4 1.4,5.6 0.8,5.8 0.3,5.8 v 118.1 l -0.3,5.8 -0.8,5.7 -1.4,5.6 -2,5.5 -2.4,5.2 -3,5 -3.5,4.6 -3.9,4.3 -4.3,3.9 -4.6,3.5 -5,3 -5.2,2.4 -5.5,2 -5.6,1.4 -5.7,0.8 -5.8,0.3 h -649.6 l -5.8,-0.3 -5.7,-0.8 -5.7,-1.4 -5.4,-2 -5.3,-2.4 -4.9,-3 -4.7,-3.5 -4.3,-3.9 -3.9,-4.3 -3.4,-4.6 -3,-5 -2.5,-5.2 -1.9,-5.5 -1.4,-5.6 -0.9,-5.7 -0.3,-5.8 v -118.1 l 0.3,-5.8 0.9,-5.8 1.4,-5.6 1.9,-5.4 2.5,-5.3 3,-4.9 3.4,-4.7 3.9,-4.3 4.3,-3.9 4.7,-3.4 4.9,-3 5.3,-2.5 5.4,-1.9 5.7,-1.5 5.7,-0.8 5.8,-0.3 h 649.6 z"
           id="path196"
           inkscape:connector-curvature="0" />
        <path
           style="fill:#000000;fill-opacity:1;fill-rule:evenodd;stroke:#000000;stroke-width:0;stroke-linecap:round;stroke-linejoin:round;stroke-opacity:1"
           d="m 16829.5,9868.39 5.7,0.85 5.6,1.41 5.5,1.96 5.2,2.47 5,2.98 4.6,3.45 4.3,3.9 3.9,4.29 3.5,4.66 3,4.97 2.4,5.24 2,5.45 1.4,5.62 0.8,5.74 0.3,5.79 v 118.13 l -0.3,5.8 -0.8,5.7 -1.4,5.6 -2,5.5 -2.4,5.2 -3,5 -3.5,4.6 -3.9,4.3 -4.3,3.9 -4.6,3.5 -5,3 -5.2,2.4 -5.5,2 -5.6,1.4 -5.7,0.8 -5.8,0.3 h -649.6 l -5.8,-0.3 -5.7,-0.8 -5.7,-1.4 -5.4,-2 -5.3,-2.4 -4.9,-3 -4.7,-3.5 -4.3,-3.9 -3.9,-4.3 -3.4,-4.6 -3,-5 -2.5,-5.2 -1.9,-5.5 -1.4,-5.6 -0.9,-5.7 -0.3,-5.8 v -118.13 l 0.3,-5.79 0.9,-5.74 1.4,-5.62 1.9,-5.45 2.5,-5.24 3,-4.97 3.4,-4.66 3.9,-4.29 4.3,-3.9 4.7,-3.45 4.9,-2.98 5.3,-2.47 5.4,-1.96 5.7,-1.41 5.7,-0.85 5.8,-0.28 h 649.6 z"
           id="path198"
           inkscape:connector-curvature="0" />
        <path
           style="fill:#000000;fill-opacity:1;fill-rule:evenodd;stroke:#000000;stroke-width:0;stroke-linecap:round;stroke-linejoin:round;stroke-opacity:1"
           d="m 16829.5,9368.39 5.7,0.85 5.6,1.41 5.5,1.96 5.2,2.47 5,2.98 4.6,3.45 4.3,3.9 3.9,4.29 3.5,4.66 3,4.97 2.4,5.24 2,5.45 1.4,5.62 0.8,5.74 0.3,5.79 v 118.11 l -0.3,5.78 -0.8,5.74 -1.4,5.62 -2,5.46 -2.4,5.23 -3,4.98 -3.5,4.65 -3.9,4.29 -4.3,3.9 -4.6,3.45 -5,2.98 -5.2,2.48 -5.5,1.95 -5.6,1.41 -5.7,0.85 -5.8,0.28 h -649.6 l -5.8,-0.28 -5.7,-0.85 -5.7,-1.41 -5.4,-1.95 -5.3,-2.48 -4.9,-2.98 -4.7,-3.45 -4.3,-3.9 -3.9,-4.29 -3.4,-4.65 -3,-4.98 -2.5,-5.23 -1.9,-5.46 -1.4,-5.62 -0.9,-5.74 -0.3,-5.78 v -118.11 l 0.3,-5.79 0.9,-5.74 1.4,-5.62 1.9,-5.45 2.5,-5.24 3,-4.97 3.4,-4.66 3.9,-4.29 4.3,-3.9 4.7,-3.45 4.9,-2.98 5.3,-2.47 5.4,-1.96 5.7,-1.41 5.7,-0.85 5.8,-0.28 h 649.6 z"
           id="path200"
           inkscape:connector-curvature="0" />
      </g>
      <g
         id="g204" />
      <g
         style="fill:#000000;fill-opacity:1;stroke:#000000;stroke-width:0;stroke-linecap:round;stroke-linejoin:round;stroke-opacity:1"
         id="g214">
        <path
           style="fill:#000000;fill-opacity:1;fill-rule:evenodd;stroke:#000000;stroke-width:0;stroke-linecap:round;stroke-linejoin:round;stroke-opacity:1"
           d="m 4607.14,9606.3 h 1574.81 v 472.4 H 4607.14 Z"
           id="path206"
           inkscape:connector-curvature="0" />
        <path
           style="fill:#000000;fill-opacity:1;fill-rule:evenodd;stroke:#000000;stroke-width:0;stroke-linecap:round;stroke-linejoin:round;stroke-opacity:1"
           d="M 6181.95,10866.1 H 4607.14 v -472.4 h 1574.81 z"
           id="path208"
           inkscape:connector-curvature="0" />
        <path
           style="fill:#000000;fill-opacity:1;fill-rule:evenodd;stroke:#000000;stroke-width:0;stroke-linecap:round;stroke-linejoin:round;stroke-opacity:1"
           d="M 3931.95,9236.22 H 2357.14 v -787.4 h 1574.81 z"
           id="path210"
           inkscape:connector-curvature="0" />
        <path
           style="fill:#000000;fill-opacity:1;fill-rule:evenodd;stroke:#000000;stroke-width:0;stroke-linecap:round;stroke-linejoin:round;stroke-opacity:1"
           d="M 3931.95,11986.2 H 2357.14 v -787.4 h 1574.81 z"
           id="path212"
           inkscape:connector-curvature="0" />
      </g>
      <g
         id="g216" />
      <g
         style="fill:#000000;fill-opacity:1;stroke:#000000;stroke-width:0;stroke-linecap:round;stroke-linejoin:round;stroke-opacity:1"
         id="g228">
        <path
           style="fill:#000000;fill-opacity:1;fill-rule:evenodd;stroke:#000000;stroke-width:0;stroke-linecap:round;stroke-linejoin:round;stroke-opacity:1"
           d="m 8793.15,10715.2 h -470 v -210 h 470 z"
           id="path218"
           inkscape:connector-curvature="0" />
        <path
           style="fill:#000000;fill-opacity:1;fill-rule:evenodd;stroke:#000000;stroke-width:0;stroke-linecap:round;stroke-linejoin:round;stroke-opacity:1"
           d="m 8793.15,10341.2 h -470 v -210 h 470 z"
           id="path220"
           inkscape:connector-curvature="0" />
        <path
           style="fill:#000000;fill-opacity:1;fill-rule:evenodd;stroke:#000000;stroke-width:0;stroke-linecap:round;stroke-linejoin:round;stroke-opacity:1"
           d="m 8793.15,9967.22 h -470 v -210 h 470 z"
           id="path222"
           inkscape:connector-curvature="0" />
        <path
           style="fill:#000000;fill-opacity:1;fill-rule:evenodd;stroke:#000000;stroke-width:0;stroke-linecap:round;stroke-linejoin:round;stroke-opacity:1"
           d="m 7765.15,9967.22 h -470 v -210 h 470 z"
           id="path224"
           inkscape:connector-curvature="0" />
        <path
           style="fill:#000000;fill-opacity:1;fill-rule:evenodd;stroke:#000000;stroke-width:0;stroke-linecap:round;stroke-linejoin:round;stroke-opacity:1"
           d="m 7765.15,10715.2 h -470 v -210 h 470 z"
           id="path226"
           inkscape:connector-curvature="0" />
      </g>
      <g
         id="g230" />
      <g
         id="g232" />
      <g
         style="fill:#000000;fill-opacity:1;stroke:#000000;stroke-width:0;stroke-linecap:round;stroke-linejoin:round;stroke-opacity:1"
         id="g234" />
      <g
         style="fill:#000000;fill-opacity:1;stroke:#000000;stroke-width:118.11000061;stroke-linecap:round;stroke-linejoin:round;stroke-opacity:1"
         id="g236" />
      <g
         style="fill:#000000;fill-opacity:0;stroke:#000000;stroke-width:118.11000061;stroke-linecap:round;stroke-linejoin:round;stroke-opacity:1"
         id="g358">
        <path
           d="M 6300,9842 H 5394"
           id="path238"
           inkscape:connector-curvature="0" />
        <path
           d="M 7078,10621 6300,9842"
           id="path240"
           inkscape:connector-curvature="0" />
        <path
           d="M 7078,11889 V 10621"
           id="path242"
           inkscape:connector-curvature="0" />
        <path
           d="m 7394,12204 -316,-315"
           id="path244"
           inkscape:connector-curvature="0" />
        <path
           d="M 5608,14566 H 3468"
           id="path246"
           inkscape:connector-curvature="0" />
        <path
           d="M 7394,12781 5608,14566"
           id="path248"
           inkscape:connector-curvature="0" />
        <path
           d="m 7394,12204 v 577"
           id="path250"
           inkscape:connector-curvature="0" />
        <path
           d="m 7078,10331 v 290"
           id="path252"
           inkscape:connector-curvature="0" />
        <path
           d="m 7121,10288 -43,43"
           id="path254"
           inkscape:connector-curvature="0" />
        <path
           d="M 7778,10288 H 7121"
           id="path256"
           inkscape:connector-curvature="0" />
        <path
           d="m 8205,9862 -427,426"
           id="path258"
           inkscape:connector-curvature="0" />
        <path
           d="M 8558,9862 H 8205"
           id="path260"
           inkscape:connector-curvature="0" />
        <path
           d="m 3733,6466 39,-39"
           id="path262"
           inkscape:connector-curvature="0" />
        <path
           d="M 3733,7125 V 6466"
           id="path264"
           inkscape:connector-curvature="0" />
        <path
           d="M 7394,7086 5622,5314"
           id="path266"
           inkscape:connector-curvature="0" />
        <path
           d="m 3861,5314 -69,69"
           id="path268"
           inkscape:connector-curvature="0" />
        <path
           d="M 5622,5314 H 3861"
           id="path270"
           inkscape:connector-curvature="0" />
        <path
           d="M 7530,8403 7394,8267"
           id="path272"
           inkscape:connector-curvature="0" />
        <path
           d="M 7530,9862 V 8403"
           id="path274"
           inkscape:connector-curvature="0" />
        <path
           d="M 7394,8267 V 7086"
           id="path276"
           inkscape:connector-curvature="0" />
        <path
           d="m 14550,8592 324,-325"
           id="path278"
           inkscape:connector-curvature="0" />
        <path
           d="M 14550,9486 V 8592"
           id="path280"
           inkscape:connector-curvature="0" />
        <path
           d="m 14276,9486 h 274"
           id="path282"
           inkscape:connector-curvature="0" />
        <path
           d="M 8195,15566 14276,9486"
           id="path284"
           inkscape:connector-curvature="0" />
        <path
           d="M 3468,15566 H 8195"
           id="path286"
           inkscape:connector-curvature="0" />
        <path
           d="m 9285,6495 -591,591"
           id="path288"
           inkscape:connector-curvature="0" />
        <path
           d="M 10858,6495 H 9285"
           id="path290"
           inkscape:connector-curvature="0" />
        <path
           d="m 11450,7086 -592,-591"
           id="path292"
           inkscape:connector-curvature="0" />
        <path
           d="m 16772,9986 h -274"
           id="path294"
           inkscape:connector-curvature="0" />
        <path
           d="m 23463,2435 v 860"
           id="path296"
           inkscape:connector-curvature="0" />
        <path
           d="m 23929,1968 -466,467"
           id="path298"
           inkscape:connector-curvature="0" />
        <path
           d="M 23463,3295 17106,9652"
           id="path300"
           inkscape:connector-curvature="0" />
        <path
           d="m 17106,9652 -334,334"
           id="path302"
           inkscape:connector-curvature="0" />
        <path
           d="M 12267,3346 H 8497"
           id="path304"
           inkscape:connector-curvature="0" />
        <path
           d="M 8497,3346 7119,1968"
           id="path306"
           inkscape:connector-curvature="0" />
        <path
           d="M 17106,9652 V 8184"
           id="path308"
           inkscape:connector-curvature="0" />
        <path
           d="M 17106,8184 12267,3346"
           id="path310"
           inkscape:connector-curvature="0" />
        <path
           d="M 25229,3149 V 1968"
           id="path312"
           inkscape:connector-curvature="0" />
        <path
           d="M 5819,3149 V 1968"
           id="path314"
           inkscape:connector-curvature="0" />
        <path
           d="M 23561,18503 16498,11441"
           id="path316"
           inkscape:connector-curvature="0" />
        <path
           d="m 16498,11441 v -455"
           id="path318"
           inkscape:connector-curvature="0" />
        <path
           d="m 23929,18503 h -368"
           id="path320"
           inkscape:connector-curvature="0" />
        <path
           d="m 9436,18503 7062,-7062"
           id="path322"
           inkscape:connector-curvature="0" />
        <path
           d="M 7119,18503 H 9436"
           id="path324"
           inkscape:connector-curvature="0" />
        <path
           d="M 5819,18503 V 17322"
           id="path326"
           inkscape:connector-curvature="0" />
        <path
           d="m 25229,17322 v 1181"
           id="path328"
           inkscape:connector-curvature="0" />
        <path
           d="m 22367,9736 -150,-150"
           id="path330"
           inkscape:connector-curvature="0" />
        <path
           d="M 24579,9736 H 22367"
           id="path332"
           inkscape:connector-curvature="0" />
        <path
           d="m 22367,10736 -150,150"
           id="path334"
           inkscape:connector-curvature="0" />
        <path
           d="M 24579,10736 H 22367"
           id="path336"
           inkscape:connector-curvature="0" />
        <path
           d="M 21817,10486 H 16498"
           id="path338"
           inkscape:connector-curvature="0" />
        <path
           d="m 22217,10886 -400,-400"
           id="path340"
           inkscape:connector-curvature="0" />
        <path
           d="m 8558,10610 h 686"
           id="path342"
           inkscape:connector-curvature="0" />
        <path
           d="m 9683,7553 467,-467"
           id="path344"
           inkscape:connector-curvature="0" />
        <path
           d="M 9683,10171 V 7553"
           id="path346"
           inkscape:connector-curvature="0" />
        <path
           d="m 9244,10610 439,-439"
           id="path348"
           inkscape:connector-curvature="0" />
        <path
           d="m 7530,10610 321,321"
           id="path350"
           inkscape:connector-curvature="0" />
        <path
           d="M 10150,10094 V 8267"
           id="path352"
           inkscape:connector-curvature="0" />
        <path
           d="m 9313,10931 837,-837"
           id="path354"
           inkscape:connector-curvature="0" />
        <path
           d="M 7851,10931 H 9313"
           id="path356"
           inkscape:connector-curvature="0" />
      </g>
      <g
         id="g360" />
      <g
         style="fill:#000000;fill-opacity:0;stroke:#000000;stroke-width:118.11000061;stroke-linecap:round;stroke-linejoin:round;stroke-opacity:1"
         id="g362" />
      <g
         style="fill:#000000;fill-opacity:1;stroke:#000000;stroke-width:157.47999573;stroke-linecap:round;stroke-linejoin:round;stroke-opacity:1"
         id="g366">
        <path
           style="fill:#000000;fill-opacity:1;fill-rule:evenodd;stroke:#000000;stroke-width:157.47999573;stroke-linecap:round;stroke-linejoin:round;stroke-opacity:1"
           d="m 27593.3,1059.93 248.1,74.88 228.7,121.64 200.8,163.76 165.2,199.63 123.2,227.91 76.6,247.51 28.3,269.21 V 18098.2 l -26.4,269.9 -74.9,248 -121.7,228.8 -163.7,200.8 -199.6,165.1 -228,123.3 -247.5,76.6 -269.2,28.3 H 3725.48 l -269.89,-26.5 -248.04,-74.9 -228.77,-121.6 -200.78,-163.8 -165.16,-199.6 -123.23,-227.9 -76.61,-247.5 -28.3,-269.2 v -83.1 h 462.6 v 170.6 l 33.29,167.4 65.29,157.6 94.79,141.9 120.64,120.6 141.86,94.8 157.63,65.3 167.33,33.3 h 170.62 l 167.34,-33.3 157.62,-65.3 141.87,-94.8 120.64,-120.6 94.79,-141.9 65.29,-157.6 33.28,-167.4 v -170.6 l -33.28,-167.3 -65.29,-157.6 -94.79,-141.9 -120.64,-120.6 -141.87,-94.8 -157.62,-65.3 -167.34,-33.3 h -170.62 l -167.33,33.3 -157.63,65.3 -141.86,94.8 -120.64,120.6 -94.79,141.9 -65.29,157.6 -33.29,167.3 h -462.6 v -1077.1 h 2947.28 v 750 l 4.57,46.3 13.5,44.6 21.94,41 29.52,36 35.97,29.5 34.03,18.2 -34.03,18.2 -35.97,29.5 -29.52,36 -21.94,41 -13.5,44.5 -4.57,46.3 v 750 l 4.57,46.3 13.5,44.6 21.94,41 29.52,36 35.97,29.5 41.03,21.9 44.53,13.5 46.31,4.6 h 500 l 46.31,-4.6 44.52,-13.5 41.04,-21.9 35.97,-29.5 29.52,-36 21.93,-41 13.51,-44.6 4.56,-46.3 v -750 l -4.56,-46.3 -13.51,-44.5 -21.93,-41 -29.52,-36 -35.97,-29.5 -34.03,-18.2 34.03,-18.2 35.97,-29.5 29.52,-36 21.93,-41 13.51,-44.6 4.56,-46.3 v -750 h 325.27 l 1.15,237.2 59.05,59.1 h 348.43 v -473.4 h 157.48 v 473.4 h 348.42 l 59.06,-59.1 1.14,-237.2 -4.56,-46.3 -13.51,-44.5 -21.93,-41 -29.52,-36 -35.97,-29.5 -41.04,-22 -44.52,-13.5 -46.31,-4.5 -112.21,1.1 -59.05,59.1 h -157.48 l -59.06,-59.1 -112.2,-1.1 -46.31,4.5 -44.53,13.5 -41.03,22 -35.97,29.5 -29.52,36 -21.94,41 -13.5,44.5 -4.57,46.3 h -325.27 l -4.56,-46.3 -13.51,-44.5 -21.93,-41 -29.52,-36 -35.97,-29.5 -41.04,-22 -44.52,-13.5 -46.31,-4.5 h -500 l -46.31,4.5 -44.53,13.5 -41.03,22 -35.97,29.5 -29.52,36 -21.94,41 -13.5,44.5 -4.57,46.3 H 2384.7 v -1630.9 h 346.68 v 500 l 4.56,46.3 13.51,44.6 21.93,41 29.52,36 35.97,29.5 41.04,21.9 44.52,13.5 46.31,4.6 h 1000 l 46.31,-4.6 44.53,-13.5 41.03,-21.9 35.97,-29.5 29.52,-36 21.94,-41 13.5,-44.6 0.11,-1 h 3979.59 l 14.5,1.4 14.5,-1.4 v 0 l 43.38,-4.3 55.66,-16.9 51.3,-27.4 44.96,-36.9 9.25,-11.2 5561.01,-5561.1 3,5.6 21.5,26.2 -21.5,26.3 -27.4,51.2 -16.9,55.6 -5.7,57.9 v 118.1 l 5.7,57.8 16.9,55.6 27.4,51.3 21.5,26.2 -21.5,26.3 -27.4,51.2 -16.9,55.6 -5.7,57.9 v 118.1 l 5.7,57.8 16.9,55.6 27.4,51.3 36.9,44.9 44.9,36.8 51.2,27.4 55.6,16.9 57.9,5.7 h 649.6 l 57.8,-5.7 55.6,-16.9 51.2,-27.4 45,-36.8 36.8,-44.9 27.4,-51.3 16.9,-55.6 5.7,-57.8 v -118.1 l -5.7,-57.9 -16.9,-55.6 -27.4,-51.2 -21.5,-26.3 21.5,-26.2 27.4,-51.3 16.9,-55.6 5.7,-57.8 v -118.1 l -5.7,-57.9 -16.9,-55.6 -27.4,-51.2 -21.5,-26.3 21.5,-26.2 27.4,-51.3 16.9,-55.6 5.7,-57.8 v -118.13 l -5.7,-57.83 -16.9,-55.61 -27.4,-51.25 -21.5,-26.26 21.5,-26.26 27.4,-51.25 16.9,-55.61 5.7,-57.82 v -118.11 l -5.7,-57.83 -0.4,-1.23 h 712.5 l 1.1,19.69 59.1,59.05 h 482.2 v -255.91 l -59,-59.05 -246.1,-1.14 -46.3,4.56 -44.5,13.5 -41.1,21.94 -35.9,29.52 -29.5,35.97 -22,41.04 -13.5,44.52 -4.5,46.31 h -712.5 l -16.5,-54.38 -27.4,-51.25 -36.8,-44.91 -45,-36.87 -51.2,-27.39 -55.6,-16.87 -57.8,-5.69 h -29.6 v -250.67 h 279.2 l 46.3,-4.56 44.5,-13.51 41,-21.93 36,-29.52 29.5,-35.97 22,-41.04 13.5,-44.53 4.5,-46.3 h 325.3 l 4.6,46.3 13.5,44.53 21.9,41.04 29.5,35.97 36,29.52 41,21.93 44.6,13.51 46.3,4.56 112.2,-1.14 59,-59.06 v -473.42 h 157.5 v 473.42 l 59.1,59.06 112.2,1.14 46.3,-4.56 44.5,-13.51 41,-21.93 36,-29.52 29.5,-35.97 22,-41.04 13.5,-44.53 4.5,-46.3 -1.1,-237.21 -59.1,-59.05 h -348.4 -157.5 -348.4 l -59.1,59.05 -1.1,237.21 h -325.3 v -750 l -4.5,-46.31 -13.5,-44.53 -22,-41.04 -29.5,-35.96 -36,-29.52 -41,-21.94 -44.5,-13.51 -46.3,-4.56 h -500 l -46.3,4.56 -44.6,13.51 -41,21.94 -36,29.52 -29.5,35.96 -21.9,41.04 -13.5,44.53 -4.6,46.31 v 444.78 l -35.6,35.58 -11.2,9.24 -9.3,11.27 v 0 l -7.3,8.92 -20.3,24.78 -11.6,21.53 -15.9,29.76 -16.8,55.66 -5.7,57.89 1.4,14.5 v 524.12 h -29.5 l -57.9,5.69 -55.6,16.87 -51.2,27.39 -44.9,36.87 -36.9,44.91 -27.4,51.25 -16.9,55.61 -4.5,45.72 -5856.57,5856.64 H 4201.65 l -0.11,-1.1 -13.5,-44.5 -21.94,-41 -29.52,-36 -35.97,-29.5 -41.03,-22 -44.53,-13.5 -46.31,-4.5 h -1000 l -46.31,4.5 -44.52,13.5 -41.04,22 -35.97,29.5 -29.52,36 -21.93,41 -13.51,44.5 -4.56,46.3 H 2384.7 v -1000 h 346.68 v 500 l 4.56,46.3 13.51,44.6 21.93,41 29.52,36 35.97,29.5 41.04,21.9 44.52,13.5 46.31,4.6 h 1000 l 46.31,-4.6 44.53,-13.5 41.03,-21.9 35.97,-29.5 29.52,-36 21.94,-41 13.5,-44.6 0.11,-1 h 1392.36 l 14.5,1.4 14.49,-1.4 h 0.01 l 43.38,-4.3 55.66,-16.9 51.3,-27.4 44.96,-36.9 9.24,-11.2 1765.14,-1765.2 11.26,-9.2 9.24,-11.3 h 0.01 l 27.65,-33.7 v 0 l 27.42,-51.3 16.88,-55.6 2.6,-26.4 2.71,-0.3 44.53,-13.5 41.03,-21.9 35.97,-29.5 29.52,-36 21.94,-41 13.5,-44.6 4.56,-46.3 h 325.28 l 4.56,46.3 13.51,44.6 21.93,41 29.52,36 35.97,29.5 41.04,21.9 44.52,13.5 46.31,4.6 112.21,-1.2 59.05,-59 v -473.4 h 157.48 v 473.4 l 59.06,59 112.2,1.2 46.31,-4.6 44.53,-13.5 41.03,-21.9 35.97,-29.5 29.52,-36 21.94,-41 13.5,-44.6 4.56,-46.3 -1.14,-237.2 -59.05,-59 h -348.43 -157.48 -348.42 l -59.06,59 -1.14,237.2 h -325.28 v -750 h 325.28 l 1.14,237.2 59.06,59.1 h 348.42 v -473.4 h 157.48 v 473.4 h 348.43 l 59.05,-59.1 1.14,-237.2 -4.56,-46.3 -13.5,-44.5 -21.94,-41 -29.52,-36 -35.97,-29.5 -41.03,-22 -44.53,-13.5 -46.31,-4.5 -112.2,1.1 -59.06,59.1 h -157.48 l -59.05,-59.1 -112.21,-1.1 -46.31,4.5 -44.52,13.5 -41.04,22 -35.97,29.5 -29.52,36 -21.93,41 -13.51,44.5 -4.56,46.3 h -325.28 l -4.56,-46.3 -13.5,-44.5 -21.94,-41 -29.52,-36 -35.97,-29.5 -41.03,-22 -44.53,-13.5 -46.31,-4.5 h -270.26 v -639.8 h 81.04 l 177.71,177.7 9.25,11.3 44.96,36.9 51.29,27.4 55.66,16.9 43.38,4.2 h 0.01 l 14.5,1.5 14.5,-1.5 h 1432.48 l 14.5,1.5 14.5,-1.5 v 0 l 43.38,-4.2 55.66,-16.9 51.3,-27.4 44.96,-36.9 9.24,-11.3 816.39,-816.4 11.3,-9.2 15.9,-19.5 1.9,-2.3 19.1,-23.2 27.4,-51.3 16.9,-55.6 4.2,-43.4 v 0 l 1.5,-14.5 -1.5,-14.5 V 8875.62 l 1.1,-0.1 44.5,-13.51 41,-21.93 36,-29.52 29.5,-35.97 22,-41.04 13.5,-44.53 4.5,-46.3 h 325.3 l 4.6,46.3 13.5,44.53 21.9,41.04 29.5,35.97 36,29.52 41,21.93 44.5,13.51 46.4,4.56 112.2,-1.14 59,-59.06 v -473.42 h 157.5 v 473.42 l 59.1,59.06 112.2,1.14 46.3,-4.56 44.5,-13.51 41,-21.93 36,-29.52 29.5,-35.97 22,-41.04 13.5,-44.53 4.5,-46.3 -1.1,-237.21 -59.1,-59.05 h -348.4 -157.5 -348.4 l -59.1,59.05 -1.1,237.21 h -325.3 v -750 l -4.5,-46.31 -13.5,-44.53 -22,-41.04 -29.5,-35.96 -36,-29.52 -34,-18.19 34,-18.2 36,-29.51 29.5,-35.97 22,-41.04 13.5,-44.53 4.5,-46.31 v -671.26 h 98.8 l 226.5,226.48 v 444.78 l 4.6,46.31 13.5,44.53 21.9,41.04 29.5,35.97 36,29.51 34,18.2 -34,18.19 -36,29.52 -29.5,35.96 -21.9,41.04 -13.5,44.53 -4.6,46.31 1.1,237.2 59.1,59.06 h 348.4 v -7.88 h 157.5 v 7.88 h 348.4 l 59.1,-59.06 1.1,-237.2 -4.5,-46.31 -13.5,-44.53 -22,-41.04 -29.5,-35.96 -36,-29.52 -34,-18.19 34,-18.2 36,-29.51 29.5,-35.97 22,-41.04 13.5,-44.53 4.5,-46.31 v -750 l -4.5,-46.3 -13.5,-44.53 -22,-41.04 -29.5,-35.97 -36,-29.52 -41,-21.93 -44.5,-13.51 -46.3,-4.56 h -444.8 l -177.7,-177.71 -9.3,-11.26 -44.9,-36.9 -51.3,-27.42 -55.7,-16.88 -43.4,-4.28 v 0 l -14.5,-1.43 -14.5,1.43 H 9300.18 l -14.49,-1.43 -14.5,1.43 h -0.01 l -43.38,4.28 -55.66,16.88 -51.29,27.42 -10.43,8.56 -23.27,19.09 v 0.01 l -11.26,9.24 -9.25,11.26 -177.71,177.71 h -444.78 l -46.31,4.56 -44.52,13.51 -41.04,21.93 -35.97,29.52 -29.52,35.97 -21.93,41.04 -13.51,44.53 -4.56,46.3 v 750 l 4.56,46.31 13.51,44.53 21.93,41.04 29.52,35.97 35.97,29.51 34.03,18.2 -34.03,18.19 -35.97,29.52 -29.52,35.96 -21.93,41.04 -13.51,44.53 -4.56,46.31 1.14,237.2 59.06,59.06 h 348.42 v -7.88 h 157.48 v 7.88 h 348.43 l 59.05,-59.06 1.14,-237.2 -4.56,-46.31 -13.5,-44.53 -21.94,-41.04 -29.52,-35.96 -35.97,-29.52 -34.03,-18.19 34.03,-18.2 35.97,-29.51 29.52,-35.97 21.94,-41.04 13.5,-44.53 4.56,-46.31 v -444.78 l 226.48,-226.48 h 254.7 v 366.04 l -177.71,177.72 -11.26,9.24 -9.24,11.26 h -0.01 l -10.82,13.19 -16.83,20.51 -14.66,27.42 -12.76,23.88 -16.88,55.66 -5.7,57.88 1.43,14.5 -0.01,2481.65 -265.59,265.6 h -99.87 l -52.46,-52.4 h -333.43 v 5.4 h -157.48 v -5.4 h -7.87 v -52.5 h 7.87 v -5.4 h 157.48 v 5.4 h 333.43 l 59.05,-59.1 1.14,-19.7 -4.56,-46.3 -10.82,-35.7 10.82,-35.7 4.56,-46.28 v -210 l -4.56,-46.31 -13.5,-44.52 -21.94,-41.04 -29.52,-35.97 -35.97,-29.52 -41.03,-21.93 -44.53,-13.51 -46.31,-4.56 h -470 l -46.31,4.56 -44.52,13.51 -41.04,21.93 -9.71,7.97 -34.41,3.39 -55.66,16.88 -51.3,27.42 -44.96,36.9 -9.24,11.26 -1.96,1.95 -21.53,-40.28 -29.52,-35.97 -35.97,-29.52 -41.03,-21.93 -30.56,-9.27 v -734.47 l 16.08,-19.6 21.94,-41.04 13.5,-44.53 4.56,-46.3 h 325.28 l 4.56,46.3 13.51,44.53 21.93,41.04 29.52,35.97 35.97,29.52 41.04,21.93 44.52,13.51 46.31,4.56 112.21,-1.14 59.05,-59.06 v -473.42 h 157.48 v 473.42 l 59.06,59.06 112.2,1.14 46.31,-4.56 44.53,-13.51 41.03,-21.93 35.97,-29.52 29.52,-35.97 21.94,-41.04 13.5,-44.53 4.56,-46.3 -1.14,-237.21 -59.05,-59.05 h -348.43 -157.48 -348.42 l -59.06,59.05 -1.14,237.21 h -325.28 v -750 l -4.56,-46.31 -13.5,-44.53 -21.94,-41.04 -29.52,-35.96 -35.97,-29.52 -34.03,-18.19 34.03,-18.2 35.97,-29.51 29.52,-35.97 21.94,-41.04 13.5,-44.53 4.56,-46.31 v -750 l -4.56,-46.3 -13.5,-44.53 -21.94,-41.04 -29.52,-35.97 -35.97,-29.52 -41.03,-21.93 -44.53,-13.51 -46.31,-4.56 h -444.78 l -1357.83,-1357.82 -9.24,-11.27 -44.96,-36.9 -51.3,-27.42 -55.66,-16.88 -43.38,-4.27 v 0 l -14.5,-1.43 -14.5,1.43 H 4285.12 l -0.81,-196.86 -59.06,-59.05 h -413.38 v 7.87 h -157.48 v -7.87 h -7.88 V 4606.3 h 7.88 v -511.81 h 157.48 v 511.81 h 413.38 l 59.06,-59.06 1.14,-275.59 -4.56,-46.3 -13.51,-44.53 -21.93,-41.04 -29.52,-35.97 -35.97,-29.52 -41.04,-21.93 -44.52,-13.51 -46.31,-4.56 -177.17,1.14 -59.05,59.06 h -157.48 l -59.06,-59.06 -177.16,-1.14 -46.31,4.56 -31.94,9.69 -3.91,-39.73 -13.51,-44.53 -21.93,-41.03 -29.52,-35.97 -35.97,-29.52 -41.04,-21.94 -44.53,-13.5 -46.3,-4.57 -236.22,1.15 -59.06,59.05 v 452.76 h 7.87 v 157.48 h -7.87 v 866.14 h 7.87 v 157.48 h -7.87 v 787.4 h 7.87 v 157.48 h -7.87 v 866.14 h 7.87 v 157.48 h -7.87 v 452.76 l 59.06,59.06 236.22,1.14 46.3,-4.56 44.53,-13.51 41.04,-21.93 35.97,-29.52 29.52,-35.97 21.93,-41.04 13.51,-44.53 3.91,-39.73 31.94,9.69 46.31,4.56 177.16,-1.14 59.06,-59.05 v -511.82 h 157.48 v 511.82 l 59.05,59.05 177.17,1.14 46.31,-4.56 44.52,-13.5 41.04,-21.94 35.97,-29.52 29.52,-35.97 21.93,-41.03 13.51,-44.53 4.56,-46.31 -1.14,-275.59 -59.06,-59.06 h -413.38 -157.48 -7.88 v -157.48 h 7.88 v -354.33 l 49.21,-49.21 v -195.71 h 157.48 v 38.23 l -49.21,49.21 v 511.81 h 413.38 l 59.06,-59.05 1.14,-275.59 -4.56,-46.31 -13.51,-44.53 -17.29,-32.35 16.11,-29.24 14.08,-44.35 4.03,-39.44 -59.06,-59.06 59.06,-59.05 -4.03,-39.45 -9.29,-29.25 9.9,-32.63 4.56,-46.31 v -98.43 l -4.56,-46.3 -9.84,-32.44 9.84,-32.43 4.56,-46.31 v -98.42 l -4.56,-46.31 -9.84,-32.43 9.84,-32.43 4.56,-46.31 v -88.58 h 1214.74 l 1406.6,1406.59 v 444.78 l 4.56,46.31 13.51,44.53 21.93,41.04 29.52,35.97 35.97,29.51 34.03,18.2 -34.03,18.19 -35.97,29.52 -29.52,35.96 -21.93,41.04 -13.51,44.53 -4.56,46.31 v 750 l 4.56,46.3 13.51,44.53 21.93,41.04 29.52,35.97 35.97,29.52 41.04,21.93 44.52,13.51 46.31,4.56 h 90.73 v 648.58 l -30.56,9.27 -41.04,21.93 -35.97,29.52 -29.52,35.97 -21.93,41.04 -13.51,44.52 -4.56,46.31 v 210 l 3.09,31.42 -52.5,15.96 -51.3,27.4 -21.96,18 -416.02,-416.02 -9.24,-11.26 -44.96,-36.9 -49.21,-26.3 -0.94,-9.53 -13.51,-44.53 -21.93,-41.03 -29.52,-35.97 -35.97,-29.52 -41.04,-21.94 -44.53,-13.5 -46.3,-4.56 H 4607.14 l -46.3,4.56 -44.53,13.5 -41.04,21.94 -35.97,29.52 -29.52,35.97 -21.93,41.03 -13.51,44.53 -4.56,46.31 v 472.4 l 4.56,46.3 13.51,44.6 21.93,41 21.02,25.6 -21.02,25.6 -21.93,41.1 -13.51,44.5 -4.56,46.3 1.14,98.4 59.06,59.1 h 885.82 v -7.9 h 157.48 v 7.9 h 885.83 l 59.06,-59.1 1.14,-98.4 -1.57,-15.9 365.6,365.6 v 1131.3 l -1.43,14.5 1.43,14.5 v 0 l 4.27,43.4 16.89,55.6 27.41,51.3 36.9,45 11.27,9.2 26.71,26.7 v 444.8 l 4.56,46.3 13.51,44.6 21.93,41 29.52,36 18.66,15.3 -1508.77,1508.8 H 4201.65 l -0.11,-1.1 -13.5,-44.5 -21.94,-41 -29.52,-36 -35.97,-29.5 -41.03,-22 -44.53,-13.5 -46.31,-4.5 h -1000 l -46.31,4.5 -44.52,13.5 -41.04,22 -35.97,29.5 -29.52,36 -21.93,41 -13.51,44.5 -4.56,46.3 H 2384.7 v -1000 h 346.68 v 500 l 4.56,46.3 13.51,44.6 21.93,41 29.52,36 35.97,29.5 41.04,21.9 44.52,13.5 46.31,4.6 h 1000 l 46.31,-4.6 44.53,-13.5 41.03,-21.9 35.97,-29.5 29.52,-36 21.94,-41 13.5,-44.6 4.56,-46.3 v -500 l -4.56,-46.3 -13.5,-44.5 -21.94,-41 -29.52,-36 -35.97,-29.5 -41.03,-22 -44.53,-13.5 -46.31,-4.5 h -1000 l -46.31,4.5 -44.52,13.5 -41.04,22 -35.97,29.5 -29.52,36 -21.93,41 -13.51,44.5 -4.56,46.3 H 2384.7 v -1093.3 h 1547.25 l 46.3,-4.6 44.53,-13.5 41.04,-21.9 35.97,-29.5 29.52,-36 21.93,-41 13.51,-44.6 4.56,-46.3 v -787.4 l -4.56,-46.3 -13.51,-44.5 -21.93,-41.1 -29.52,-35.9 -35.97,-29.5 -41.04,-22 -44.53,-13.5 -46.3,-4.5 H 2384.7 v -95.4 h 1985.08 l 4.56,46.3 13.51,44.6 21.93,41 29.52,36 35.97,29.5 41.04,21.9 44.53,13.5 46.3,4.6 649.61,-1.1 59.05,-59.1 v -334.6 h 157.48 v 334.6 l 59.06,59.1 649.61,1.1 46.3,-4.6 44.53,-13.5 41.04,-21.9 35.97,-29.5 29.52,-36 21.93,-41 13.51,-44.6 4.56,-46.3 -1.14,-98.4 -59.06,-59 H 5473.28 5315.8 4429.98 l -59.06,59 -1.14,98.4 H 2384.7 V 9473.58 h 1547.25 l 46.3,-4.56 44.53,-13.5 41.04,-21.94 35.97,-29.52 29.52,-35.97 21.93,-41.03 13.51,-44.53 4.56,-46.31 v -787.4 l -4.56,-46.31 -13.51,-44.53 -21.93,-41.03 -29.52,-35.97 -35.97,-29.52 -41.04,-21.94 -44.53,-13.5 -46.3,-4.56 H 2384.7 v -218.33 l 206.69,-1 59.06,-59.06 v -452.76 h -7.87 v -157.48 h 7.87 v -866.14 h -7.87 v -157.48 h 7.87 v -787.4 h -7.87 v -157.48 h 7.87 v -866.14 h -7.87 v -157.48 h 7.87 v -452.76 l -59.06,-59.05 -206.69,-1 V 2374.24 l 9.55,-97.34 h 453.05 v 170.61 l 33.29,167.34 65.29,157.63 94.79,141.86 120.64,120.64 141.86,94.79 157.63,65.29 167.33,33.29 h 170.62 l 167.34,-33.29 157.62,-65.29 141.87,-94.79 120.64,-120.64 94.79,-141.86 65.29,-157.63 33.28,-167.34 V 2276.9 l -33.28,-167.34 -65.29,-157.63 -94.79,-141.86 -120.64,-120.64 -141.87,-94.79 -2.74,-1.14 h 1211.01 v 750 l 4.57,46.31 13.5,44.53 21.94,41.04 29.52,35.97 35.97,29.51 34.03,18.2 -34.03,18.19 -35.97,29.51 -29.52,35.97 -21.94,41.04 -13.5,44.53 -4.57,46.31 v 750 l 4.57,46.3 13.5,44.53 21.94,41.04 29.52,35.97 35.97,29.52 41.03,21.93 44.53,13.51 46.31,4.56 h 500 l 46.31,-4.56 44.52,-13.51 41.04,-21.93 35.97,-29.52 29.52,-35.97 21.93,-41.04 13.51,-44.53 4.56,-46.3 h 325.27 l 4.57,46.3 13.5,44.53 21.94,41.04 29.52,35.97 35.97,29.52 41.03,21.93 44.53,13.51 46.31,4.56 112.2,-1.14 59.06,-59.06 v -473.42 h 157.48 v 473.42 l 59.05,59.06 112.21,1.14 46.31,-4.56 44.52,-13.51 41.04,-21.93 35.97,-29.52 29.52,-35.97 21.93,-41.04 13.51,-44.53 4.56,-46.3 -1.14,-237.21 -59.06,-59.05 h -348.42 -157.48 -348.43 l -59.05,59.05 -1.15,237.21 h -325.27 v -750 l -4.56,-46.31 -13.51,-44.53 -21.93,-41.04 -29.52,-35.97 -35.97,-29.51 -34.03,-18.19 34.03,-18.2 35.97,-29.51 29.52,-35.97 21.93,-41.04 13.51,-44.53 4.56,-46.31 v -750 h 325.27 v 750 l 4.57,46.31 13.5,44.53 21.94,41.04 29.52,35.97 35.97,29.51 34.03,18.2 -34.03,18.19 -35.97,29.51 -29.52,35.97 -21.94,41.04 -13.5,44.53 -4.57,46.31 1.15,237.2 59.05,59.06 h 348.43 v -7.88 h 157.48 v 7.88 h 348.42 l 59.06,-59.06 0.67,-138.83 672.02,672.02 9.24,11.26 11.26,9.24 v 0 l 25.78,21.16 7.92,6.5 51.3,27.42 55.66,16.88 43.38,4.27 v 0 l 14.5,1.43 14.5,-1.43 h 3633.9 l 4014.7,4014.77 h -64.7 v 59.05 l -59,-59.05 -112.2,-1.15 -46.3,4.56 -44.6,13.51 -41,21.94 -36,29.52 -29.5,35.96 -21.9,41.04 -13.5,44.53 -4.6,46.31 1.1,237.2 59.1,59.06 h 348.4 v -7.88 h 157.5 v 7.88 h 348.4 l 45.7,-45.64 163.6,163.61 v 824.13 l -174.2,0.81 -59.1,59.05 v 255.91 h 7.9 v 78.74 h -7.9 v 47.24 h -157.5 v -47.24 h -482.2 l -59.1,59.06 -1.1,19.68 4.5,46.31 13.5,44.53 22,41.03 15.7,19.21 -5.8,7.07 -27.4,51.25 -16.9,55.61 -5.6,57.83 v 118.13 l 5.6,57.8 16.9,55.6 27.4,51.3 21.6,26.2 -21.6,26.3 -27.4,51.2 -16.9,55.6 -5.6,57.9 v 118.1 l 5.6,57.8 16.9,55.6 27.4,51.3 21.6,26.2 -21.6,26.3 -27.4,51.2 -16.9,55.6 -5.6,57.9 v 118.1 l 5.6,57.8 16.9,55.6 27.4,51.3 36.9,44.9 44.9,36.8 51.2,27.4 55.6,16.9 57.9,5.7 h 6.8 l -6866.93,6867 H 7606.71 v -79.8 l -4.56,-46.3 -13.51,-44.5 -21.93,-41 -29.52,-36 -35.97,-29.5 -34.03,-18.2 34.03,-18.2 35.97,-29.5 29.52,-36 21.93,-41 13.51,-44.6 4.56,-46.3 -1.14,-237.2 -59.06,-59 h -348.42 v 7.8 h -157.48 v -7.8 h -348.43 l -59.05,59 -1.15,237.2 4.57,46.3 13.5,44.6 21.94,41 29.52,36 35.97,29.5 34.03,18.2 -34.03,18.2 -35.97,29.5 -29.52,36 -21.94,41 -13.5,44.5 -4.57,46.3 v 750 l 4.57,46.3 13.5,44.6 21.94,41 29.52,36 35.97,29.5 41.03,21.9 44.53,13.5 46.31,4.6 h 500 l 46.31,-4.6 44.52,-13.5 41.04,-21.9 35.97,-29.5 29.52,-36 21.93,-41 13.51,-44.6 4.56,-46.3 v -79.7 h 1815.07 l 14.5,1.4 14.5,-1.4 v 0 l 43.38,-4.3 55.66,-16.8 51.3,-27.5 44.96,-36.9 9.24,-11.2 1084.38,-1084.4 h 600.5 l 1.2,12.1 v 960.1 l -1.2,12.1 4.8,48.2 14,46.4 22.9,42.7 30.7,37.5 37.5,30.7 42.7,22.9 46.4,14.1 36.2,3.5 12.1,1.2 12,-1.2 h 7849.9 l 12.1,1.2 12.1,-1.2 36.1,-3.5 46.4,-14.1 42.7,-22.9 37.5,-30.7 30.8,-37.5 22.8,-42.7 14.1,-46.4 4.7,-48.2 -1.2,-12.1 v -960.1 l 1.2,-12.1 -4.7,-48.2 -14.1,-46.4 -22.8,-42.8 -30.8,-37.4 -37.5,-30.8 -42.7,-22.8 -46.4,-14.1 -36.1,-3.6 -12.1,-1.1 -12.1,1.1 h -7849.9 l -12,-1.1 -12.1,1.1 -36.2,3.6 -46.4,14.1 -42.7,22.8 -37.5,30.8 -30.7,37.4 -22.9,42.8 -14,46.4 -4.8,48.2 h -600.5 l 5759.2,-5759.2 6843.5,6843.6 9.3,11.2 44.9,36.9 45.6,24.4 v 103.9 l 4.6,46.3 13.5,44.6 21.9,41 29.5,36 36,29.5 41,21.9 44.6,13.5 46.3,4.6 h 500 l 46.3,-4.6 44.5,-13.5 41.1,-21.9 35.9,-29.5 29.5,-36 22,-41 13.5,-44.6 4.5,-46.3 v -750 l -4.5,-46.3 -13.5,-44.5 -22,-41 -29.5,-36 -35.9,-29.5 -34.1,-18.2 34.1,-18.2 35.9,-29.5 29.5,-36 22,-41 13.5,-44.6 4.5,-46.3 -1.1,-237.2 -59.1,-59 h -348.4 v 7.8 h -157.5 v -7.8 h -348.4 l -59,59 -1.2,237.2 4.6,46.3 13.5,44.6 21.9,41 29.5,36 36,29.5 34,18.2 -34,18.2 -36,29.5 -29.5,36 -3.5,6.5 -1055.7,-1055.8 h 1019.2 l 1.2,237.2 59,59.1 h 348.4 v -473.4 h 157.5 v 473.4 h 348.4 l 59.1,-59.1 1.1,-237.2 h 325.3 v 750 l 4.6,46.3 13.5,44.6 21.9,41 29.5,36 36,29.5 34,18.2 -34,18.2 -36,29.5 -29.5,36 -21.9,41 -13.5,44.5 -4.6,46.3 v 750 l 4.6,46.3 13.5,44.6 21.9,41 29.5,36 36,29.5 41,21.9 44.6,13.5 46.3,4.6 h 500 l 46.3,-4.6 44.5,-13.5 41.1,-21.9 35.9,-29.5 29.5,-36 22,-41 13.5,-44.6 4.5,-46.3 v -750 l -4.5,-46.3 -13.5,-44.5 -7.1,-13.2 h 777.5 v 170.6 l 33.3,167.4 65.3,157.6 94.8,141.9 120.7,120.6 141.8,94.8 157.6,65.3 167.4,33.3 h 170.6 l 167.3,-33.3 157.7,-65.3 141.8,-94.8 120.7,-120.6 94.8,-141.9 65.2,-157.6 33.3,-167.4 v -170.6 l -33.3,-167.3 -65.2,-157.6 -94.8,-141.9 -120.7,-120.6 -141.8,-94.8 -157.7,-65.3 -167.3,-33.3 h -170.6 l -167.4,33.3 -157.6,65.3 -141.8,94.8 -120.7,120.6 -94.8,141.9 -65.3,157.6 -33.3,167.3 h -777.5 l -14.9,-27.8 -29.5,-36 -35.9,-29.5 -34.1,-18.2 34.1,-18.2 35.9,-29.5 29.5,-36 22,-41 13.5,-44.6 4.5,-46.3 v -750 l -4.5,-46.3 -13.5,-44.5 -22,-41 -29.5,-36 -35.9,-29.5 -41.1,-22 -44.5,-13.5 -46.3,-4.5 h -500 l -46.3,4.5 -44.6,13.5 -41,22 -36,29.5 -29.5,36 -21.9,41 -13.5,44.5 -4.6,46.3 h -325.3 l -4.5,-46.3 -13.5,-44.5 -22,-41 -29.5,-36 -35.9,-29.5 -41.1,-22 -44.5,-13.5 -46.3,-4.5 -112.2,1.1 -59.1,59.1 h -157.5 l -59,-59.1 -112.2,-1.1 -46.3,4.5 -44.6,13.5 -41,22 -36,29.5 -29.5,36 -21.9,41 -13.5,44.5 -4.6,46.3 H 22423 l -5606.2,-5606.1 h 6.9 l 57.8,-5.7 55.6,-16.9 51.3,-27.4 44.9,-36.8 36.8,-44.9 27.4,-51.3 16.9,-55.6 5.7,-57.8 v -118.1 l -5.7,-57.9 -16.9,-55.6 -17.2,-32.2 H 21605 v 354.7 l 4.6,46.3 13.5,44.6 21.9,41 29.5,36 36,29.5 41,21.9 44.6,13.5 46.3,4.6 h 750 l 46.3,-4.6 44.5,-13.5 41.1,-21.9 35.9,-29.5 29.5,-36 22,-41 13.5,-44.6 4.5,-46.3 v -104.7 h 725.1 v 59.1 l 4.6,46.3 13.5,44.5 21.9,41 29.5,36 36,29.5 41,21.9 44.6,13.6 46.3,4.5 H 25367 l 46.3,-4.5 44.5,-13.6 41.1,-21.9 35.9,-29.5 29.5,-36 22,-41 13.5,-44.5 4.5,-46.3 v -708.7 l -4.5,-46.3 -13.5,-44.5 -22,-41.1 -11.3,-13.8 11.3,-13.8 22,-41 13.5,-44.5 4.5,-46.3 v -708.71 l -4.5,-46.31 -13.5,-44.53 -22,-41.03 -29.5,-35.97 -35.9,-29.52 -41.1,-21.94 -44.5,-13.5 -46.3,-4.56 h -1574.8 l -46.3,4.56 -44.6,13.5 -41,21.94 -36,29.52 -29.5,35.97 -21.9,41.03 -13.5,44.53 -4.6,46.31 v 59.05 h -725.1 v -104.72 l -4.5,-46.31 -13.5,-44.52 -22,-41.04 -29.5,-35.97 -35.9,-29.52 -41.1,-21.93 -44.5,-13.51 -46.3,-4.56 h -750 l -46.3,4.56 -44.6,13.51 -41,21.93 -36,29.52 -29.5,35.97 -21.9,41.04 -13.5,44.52 -4.6,46.31 v 500 l 4.6,46.31 13.5,44.53 21.9,41.03 29.5,36.01 36,29.5 41,21.9 44.6,13.5 46.3,4.6 h 750 l 46.3,-4.6 44.5,-13.5 41.1,-21.9 2.5,-2.1 h 828 v 59.1 l 4.6,46.3 13.5,44.5 21.9,41 11.3,13.8 -11.3,13.8 -21.9,41.1 -13.5,44.5 -4.6,46.3 v 59 h -828 l -2.5,-2 -41.1,-22 -44.5,-13.5 -46.3,-4.5 h -444.8 l -111.2,-111.2 -9.2,-11.3 -45,-36.9 -51.3,-27.4 -55.6,-16.9 -43.4,-4.3 v 0 l -14.5,-1.4 -14.5,1.4 h -4722.6 l 17.2,-32.2 16.9,-55.6 4.5,-45.7 185.8,-185.8 11.3,-9.25 9.2,-11.26 6174,-6173.97 12.5,15.33 36,29.52 41,21.93 44.6,13.51 46.3,4.56 112.2,-1.14 59,-59.06 v -473.42 h 157.5 v 473.42 l 59.1,59.06 112.2,1.14 46.3,-4.56 44.5,-13.51 41.1,-21.93 35.9,-29.52 29.5,-35.97 22,-41.04 13.5,-44.53 4.5,-46.3 -1.1,-237.21 -59.1,-59.05 h -348.4 -157.5 -7.8 v -157.48 h 7.8 v -7.88 h 157.5 v 7.88 h 348.4 l 59.1,-59.06 1.1,-237.2 -4.5,-46.31 -13.5,-44.53 -22,-41.04 -29.5,-35.97 -35.9,-29.51 -34.1,-18.19 34.1,-18.2 35.9,-29.51 29.5,-35.97 22,-41.04 13.5,-44.53 4.5,-46.31 v -750 h 325.3 v 750 l 4.6,46.31 13.5,44.53 21.9,41.04 29.5,35.97 36,29.51 34,18.2 -34,18.19 -36,29.51 -29.5,35.97 -21.9,41.04 -13.5,44.53 -4.6,46.31 v 750 l 4.6,46.3 13.5,44.53 21.9,41.04 29.5,35.97 36,29.52 41,21.93 44.6,13.51 46.3,4.56 h 500 l 46.3,-4.56 44.5,-13.51 41.1,-21.93 35.9,-29.52 29.5,-35.97 22,-41.04 13.5,-44.53 4.5,-46.3 v -750 l -4.5,-46.31 -13.5,-44.53 -22,-41.04 -29.5,-35.97 -35.9,-29.51 -34.1,-18.19 34.1,-18.2 35.9,-29.51 29.5,-35.97 22,-41.04 13.5,-44.53 4.5,-46.31 v -66.6 h 752.4 v 170.61 l 33.3,167.34 65.3,157.63 94.8,141.86 120.7,120.64 141.8,94.79 157.6,65.29 167.4,33.29 h 170.6 l 167.3,-33.29 157.7,-65.29 141.8,-94.79 120.7,-120.64 94.8,-141.86 65.2,-157.63 33.3,-167.34 V 2276.9 l -33.3,-167.34 -65.2,-157.63 -94.8,-141.86 -120.7,-120.64 -141.8,-94.79 -157.7,-65.29 -167.3,-33.29 h -170.6 l -167.4,33.29 -157.6,65.29 -141.8,94.79 -120.7,120.64 -94.8,141.86 -65.3,157.63 -33.3,167.34 h -752.4 v -683.4 l -4.5,-46.3 -13.5,-44.53 -22,-41.04 -29.5,-35.97 -35.9,-29.52 -41.1,-21.93 -44.5,-13.51 -46.3,-4.56 h -500 l -46.3,4.56 -44.6,13.51 -41,21.93 -36,29.52 -29.5,35.97 -21.9,41.04 -13.5,44.53 -4.6,46.3 h -325.3 l -4.5,-46.3 -13.5,-44.53 -22,-41.04 -29.5,-35.97 -35.9,-29.52 -41.1,-21.93 -44.5,-13.51 -46.3,-4.56 h -500 l -46.3,4.56 -44.6,13.51 -41,21.93 -36,29.52 -29.5,35.97 -21.9,41.04 -13.5,44.53 -4.6,46.3 v 444.78 l -177.7,177.71 -11.3,9.25 -36.9,44.96 -27.4,51.3 -16.9,55.66 -4.2,43.38 v 0 l -1.5,14.5 1.5,14.5 v 723.81 l -5766.4,5766.34 v -740.55 l 1.5,-14.5 -1.5,-14.5 v 0 l -4.2,-43.39 -16.9,-55.66 -27.4,-51.29 -22.8,-27.67 -4.9,-6.03 v 0 l -9.2,-11.26 -11.3,-9.25 -4817.7,-4817.67 -9.2,-11.26 -44.2,-36.27 h 7015.8 l 12.1,1.19 12.1,-1.19 36.1,-3.56 46.4,-14.07 42.7,-22.85 37.5,-30.74 30.8,-37.47 22.8,-42.75 14.1,-46.38 4.7,-48.24 -1.2,-12.09 v -960.07 l 1.2,-12.09 -4.7,-48.24 -14.1,-46.38 -22.8,-42.75 -30.8,-37.47 -37.5,-30.75 -42.7,-22.84 -46.4,-14.07 -36.1,-3.56 -12.1,-1.19 -12.1,1.19 h -7849.9 l -12,-1.19 -12.1,1.19 -36.2,3.56 -46.4,14.07 -42.7,22.84 -37.5,30.75 -30.7,37.47 -22.9,42.75 -14,46.38 -4.8,48.24 1.2,12.09 v 960.07 l -1.2,12.09 4.8,48.24 14,46.38 22.9,42.75 30.7,37.47 26.8,22.01 H 8619.61 L 7606.71,2038.29 V 1593.5 l -4.56,-46.3 -13.51,-44.53 -21.93,-41.04 -29.52,-35.97 -35.97,-29.52 -41.04,-21.93 -44.52,-13.51 -46.31,-4.56 h -500 l -46.31,4.56 -44.53,13.51 -41.03,21.93 -35.97,29.52 -29.52,35.97 -21.94,41.04 -13.5,44.53 -4.57,46.3 h -325.27 l -4.56,-46.3 -13.51,-44.53 -21.93,-41.04 -29.52,-35.97 -35.97,-29.52 -41.04,-21.93 -44.52,-13.51 -46.31,-4.56 h -500 l -46.31,4.56 -44.53,13.51 -41.03,21.93 -35.97,29.52 -29.52,35.97 -21.94,41.04 -13.5,44.53 -4.57,46.3 H 4120.97 l -154.88,-64.15 -167.34,-33.29 h -170.62 l -167.33,33.29 -157.63,65.29 -141.86,94.79 -120.64,120.64 -94.79,141.86 -65.29,157.63 -33.29,167.34 h -453.05 l 16.91,-172.55 74.89,-248.04 121.64,-228.77 163.75,-200.78 199.64,-165.15 227.91,-123.23 247.51,-76.62 269.21,-28.3 H 27323.5 Z"
           id="path364"
           inkscape:connector-curvature="0" />
      </g>
    </g>
    <g
       style="fill:#ffffff;fill-opacity:1;stroke:#ffffff;stroke-width:157.47999573;stroke-linecap:round;stroke-linejoin:round;stroke-opacity:1"
       id="g370" />
    <g
       style="fill:#ffffff;fill-opacity:1;stroke:#ffffff;stroke-width:39.37009811;stroke-linecap:round;stroke-linejoin:round;stroke-opacity:1"
       id="g376" />
    <g
       style="fill:#ffffff;fill-opacity:1;stroke:#ffffff;stroke-width:39.37009811;stroke-linecap:round;stroke-linejoin:round;stroke-opacity:1"
       id="g382" />
    <g
       style="fill:#ffffff;fill-opacity:1;stroke:#ffffff;stroke-width:39.37009811;stroke-linecap:round;stroke-linejoin:round;stroke-opacity:1"
       id="g388" />
    <g
       style="fill:#ffffff;fill-opacity:1;stroke:#ffffff;stroke-width:39.37009811;stroke-linecap:round;stroke-linejoin:round;stroke-opacity:1"
       id="g394" />
    <g
       style="fill:#000000;fill-opacity:1;stroke:#000000;stroke-width:39.37009811;stroke-linecap:round;stroke-linejoin:round;stroke-opacity:1"
       id="g396" />
    <g
       style="fill:#000000;fill-opacity:1;stroke:#000000;stroke-width:19.68499947;stroke-linecap:round;stroke-linejoin:round;stroke-opacity:1"
       id="g398" />
  </g>
  <g
     inkscape:groupmode="layer"
     id="layer2"
     inkscape:label="holes"
     style="display:inline"
     transform="translate(-1734.4567,-383.45672)">
    <path
       id="path406"
       style="display:inline;fill:#000000;fill-opacity:1;stroke:#000000;stroke-width:19.68499947;stroke-linecap:round;stroke-linejoin:round;stroke-opacity:1"
       d="m 19461,17618 h -7874 v 984 h 7874 z"
       inkscape:connector-curvature="0"
       sodipodi:nodetypes="ccccc" />
    <path
       id="path414"
       style="display:inline;fill:#000000;fill-opacity:1;stroke:#000000;stroke-width:19.68499947;stroke-linecap:round;stroke-linejoin:round;stroke-opacity:1"
       d="m 19461,2854 v -984 h -7874 v 984 z"
       inkscape:connector-curvature="0"
       sodipodi:nodetypes="ccccc" />
    <g
       style="display:inline;fill:#000000;fill-opacity:1;stroke:#ffffff;stroke-width:0;stroke-linecap:round;stroke-linejoin:round;stroke-opacity:1"
       id="g374">
      <circle
         cx="27335.5"
         cy="18110.199"
         r="629.92102"
         id="circle372"
         style="fill:#000000;fill-opacity:1" />
    </g>
    <g
       style="display:inline;fill:#000000;fill-opacity:1;stroke:#ffffff;stroke-width:0;stroke-linecap:round;stroke-linejoin:round;stroke-opacity:1"
       id="g380">
      <circle
         cx="3713.4399"
         cy="18110.199"
         r="629.92102"
         id="circle378"
         style="fill:#000000;fill-opacity:1" />
    </g>
    <g
       style="display:inline;fill:#000000;fill-opacity:1;stroke:#ffffff;stroke-width:0;stroke-linecap:round;stroke-linejoin:round;stroke-opacity:1"
       id="g386">
      <circle
         cx="27335.5"
         cy="2362.2"
         r="629.92102"
         id="circle384"
         style="fill:#000000;fill-opacity:1" />
    </g>
    <g
       style="display:inline;fill:#000000;fill-opacity:1;stroke:#ffffff;stroke-width:0;stroke-linecap:round;stroke-linejoin:round;stroke-opacity:1"
       id="g392">
      <circle
         cx="3713.4399"
         cy="2362.2"
         r="629.92102"
         id="circle390"
         style="fill:#000000;fill-opacity:1" />
    </g>
  </g>
  <g
     inkscape:groupmode="layer"
     id="layer3"
     inkscape:label="outline"
     style="display:inline"
     transform="translate(-1734.4567,-383.45672)">
    <path
       id="path430"
       style="fill:#000000;fill-opacity:0.98571424;stroke:#000000;stroke-width:19.68499947;stroke-linecap:round;stroke-linejoin:round;stroke-opacity:1"
       d="m 2138,2362 v 15748 l 0.64,0.2 c 0,417.663 165.916,818.219 461.2482,1113.552 295.3323,295.332 695.8889,461.248 1113.5518,461.248 h -0.44 23622 0.5 c 417.663,0 818.219,-165.916 1113.552,-461.248 295.332,-295.333 461.248,-695.889 461.248,-1113.552 l -0.3,-0.2 V 2362 l 0.3,0.2 c 0,-417.6626 -165.917,-818.2186 -461.249,-1113.5505 C 28153.719,953.31768 27753.163,787.402 27335.5,787.402 L 27335,787 H 3713 l 0.44,0.402 c -417.6626,0 -818.2188,165.91568 -1113.5511,461.2475 C 2304.5567,1543.9814 2138.6405,1944.5374 2138.64,2362.2 Z"
       inkscape:connector-curvature="0"
       sodipodi:nodetypes="cccsccccsccccsccccscc" />
    <g
       style="fill:#000000;fill-opacity:0;stroke:#000000;stroke-width:19.68499947;stroke-linecap:round;stroke-linejoin:round;stroke-opacity:1"
       id="g432" />
    <g
       style="fill:#000000;fill-opacity:0;stroke:#000000;stroke-width:19.68499947;stroke-linecap:round;stroke-linejoin:round;stroke-opacity:1"
       id="g434" />
    <g
       style="fill:#000000;fill-opacity:0;stroke:#000000;stroke-width:19.68499947;stroke-linecap:round;stroke-linejoin:round;stroke-opacity:1"
       id="g436" />
    <g
       style="fill:#000000;fill-opacity:0;stroke:#000000;stroke-width:19.68499947;stroke-linecap:round;stroke-linejoin:round;stroke-opacity:1"
       id="g438" />
    <g
       style="fill:#000000;fill-opacity:0;stroke:#000000;stroke-width:19.68499947;stroke-linecap:round;stroke-linejoin:round;stroke-opacity:1"
       id="g440" />
    <g
       style="fill:#000000;fill-opacity:0;stroke:#000000;stroke-width:19.68499947;stroke-linecap:round;stroke-linejoin:round;stroke-opacity:1"
       id="g442" />
    <g
       style="fill:#000000;fill-opacity:0;stroke:#000000;stroke-width:19.68499947;stroke-linecap:round;stroke-linejoin:round;stroke-opacity:1"
       id="g444" />
    <g
       style="fill:#000000;fill-opacity:0;stroke:#000000;stroke-width:19.68499947;stroke-linecap:round;stroke-linejoin:round;stroke-opacity:1"
       id="g446" />
    <g
       style="fill:#000000;fill-opacity:0;stroke:#000000;stroke-width:19.68499947;stroke-linecap:round;stroke-linejoin:round;stroke-opacity:1"
       id="g448" />
    <g
       style="fill:#000000;fill-opacity:0;stroke:#000000;stroke-width:19.68499947;stroke-linecap:round;stroke-linejoin:round;stroke-opacity:1"
       id="g450" />
    <g
       style="fill:#000000;fill-opacity:0;stroke:#000000;stroke-width:19.68499947;stroke-linecap:round;stroke-linejoin:round;stroke-opacity:1"
       id="g452" />
    <g
       style="fill:#000000;fill-opacity:0;stroke:#000000;stroke-width:19.68499947;stroke-linecap:round;stroke-linejoin:round;stroke-opacity:1"
       id="g454" />
    <g
       style="fill:#000000;fill-opacity:0;stroke:#000000;stroke-width:19.68499947;stroke-linecap:round;stroke-linejoin:round;stroke-opacity:1"
       id="g456" />
    <g
       style="fill:#000000;fill-opacity:0;stroke:#000000;stroke-width:19.68499947;stroke-linecap:round;stroke-linejoin:round;stroke-opacity:1"
       id="g458" />
    <g
       style="fill:#000000;fill-opacity:0;stroke:#000000;stroke-width:19.68499947;stroke-linecap:round;stroke-linejoin:round;stroke-opacity:1"
       id="g460" />
    <g
       style="fill:#000000;fill-opacity:0;stroke:#000000;stroke-width:19.68499947;stroke-linecap:round;stroke-linejoin:round;stroke-opacity:1"
       id="g462" />
    <g
       style="fill:#000000;fill-opacity:0;stroke:#000000;stroke-width:19.68499947;stroke-linecap:round;stroke-linejoin:round;stroke-opacity:1"
       id="g464" />
    <g
       style="fill:#000000;fill-opacity:0;stroke:#000000;stroke-width:19.68499947;stroke-linecap:round;stroke-linejoin:round;stroke-opacity:1"
       id="g466" />
    <g
       style="fill:#000000;fill-opacity:0;stroke:#000000;stroke-width:19.68499947;stroke-linecap:round;stroke-linejoin:round;stroke-opacity:1"
       id="g468" />
    <g
       style="fill:#000000;fill-opacity:0;stroke:#000000;stroke-width:19.68499947;stroke-linecap:round;stroke-linejoin:round;stroke-opacity:1"
       id="g470" />
    <g
       style="fill:#000000;fill-opacity:0;stroke:#000000;stroke-width:19.68499947;stroke-linecap:round;stroke-linejoin:round;stroke-opacity:1"
       id="g472" />
    <g
       style="fill:#000000;fill-opacity:0;stroke:#000000;stroke-width:19.68499947;stroke-linecap:round;stroke-linejoin:round;stroke-opacity:1"
       id="g474" />
    <g
       style="fill:#000000;fill-opacity:0;stroke:#000000;stroke-width:19.68499947;stroke-linecap:round;stroke-linejoin:round;stroke-opacity:1"
       id="g476" />
    <g
       style="fill:#000000;fill-opacity:0;stroke:#000000;stroke-width:19.68499947;stroke-linecap:round;stroke-linejoin:round;stroke-opacity:1"
       id="g478" />
    <g
       style="fill:#000000;fill-opacity:0;stroke:#000000;stroke-width:19.68499947;stroke-linecap:round;stroke-linejoin:round;stroke-opacity:1"
       id="g480" />
    <g
       style="fill:#000000;fill-opacity:0;stroke:#000000;stroke-width:19.68499947;stroke-linecap:round;stroke-linejoin:round;stroke-opacity:1"
       id="g482" />
  </g>
</svg>
