0
SECTION
2
HEADER
9
$INSUNITS
70
4
9
$ACADVER
1
AC1014
9
$HANDSEED
5
FFFF
0
ENDSEC
0
SECTION
2
TABLES
0
TABLE
2
VPORT
5
8
100
AcDbSymbolTable
0
ENDTAB
0
TABLE
2
LTYPE
5
5
100
AcDbSymbolTable
0
LTYPE
5
14
100
AcDbSymbolTableRecord
100
AcDbLinetypeTableRecord
2
BYBLOCK
70
0
0
LTYPE
5
15
100
AcDbSymbolTableRecord
100
AcDbLinetypeTableRecord
2
BYLAYER
70
0
0
ENDTAB
0
TABLE
2
LAYER
5
2
100
AcDbSymbolTable
70
2
0
LAYER
5
50
100
AcDbSymbolTableRecord
100
AcDbLayerTableRecord
2
0
70
0
6
CONTINUOUS
0
ENDTAB
0
TABLE
2
STYLE
5
3
100
AcDbSymbolTable
70
1
0
STYLE
5
11
100
AcDbSymbolTableRecord
100
AcDbTextStyleTableRecord
2
STANDARD
70
0
0
ENDTAB
0
TABLE
2
VIEW
5
6
100
AcDbSymbolTable
70
0
0
ENDTAB
0
TABLE
2
UCS
5
7
100
AcDbSymbolTable
70
0
0
ENDTAB
0
TABLE
2
APPID
5
9
100
AcDbSymbolTable
70
2
0
APPID
5
12
100
AcDbSymbolTableRecord
100
AcDbRegAppTableRecord
2
ACAD
70
0
0
ENDTAB
0
TABLE
2
DIMSTYLE
5
A
100
AcDbSymbolTable
70
1
0
ENDTAB
0
TABLE
2
BLOCK_RECORD
5
1
100
AcDbSymbolTable
70
1
0
BLOCK_RECORD
5
1F
100
AcDbSymbolTableRecord
100
AcDbBlockTableRecord
2
*MODEL_SPACE
0
BLOCK_RECORD
5
1B
100
AcDbSymbolTableRecord
100
AcDbBlockTableRecord
2
*PAPER_SPACE
0
ENDTAB
0
ENDSEC
0
SECTION
2
BLOCKS
0
BLOCK
5
20
100
AcDbEntity
100
AcDbBlockBegin
2
*MODEL_SPACE
0
ENDBLK
5
21
100
AcDbEntity
100
AcDbBlockEnd
0
BLOCK
5
1C
100
AcDbEntity
100
AcDbBlockBegin
2
*PAPER_SPACE
0
ENDBLK
5
1D
100
AcDbEntity
100
AcDbBlockEnd
0
ENDSEC
0
SECTION
2
ENTITIES
0
LINE
5
100
100
AcDbEntity
8
0
100
AcDbLine
10
54.594412909992243
20
-8.0006867032535158
30
0
11
56.56481456572255
21
-0.64704761275682809
31
0
0
ARC
5
101
100
AcDbEntity
8
0
100
AcDbCircle
10
54.15000000000002
20
1.7763568394002505e-14
30
0
40
2.5000000000000067
210
-0
220
0
230
1
100
AcDbArc
50
-15.000000000012859
51
63.000529837302118
0
LINE
5
102
100
AcDbEntity
8
0
100
AcDbLine
10
55.284955650553954
20
2.2275268059612205
30
0
11
36.638053219335198
21
11.728380947425695
31
0
0
ARC
5
103
100
AcDbEntity
8
0
100
AcDbCircle
10
37.999999999999858
20
14.401413114579002
30
0
40
2.9999999999998561
210
0
220
0
230
1
100
AcDbArc
50
180
51
243.00052983730194
0
LINE
5
104
100
AcDbEntity
8
0
100
AcDbLine
10
35
20
14.401413114578999
30
0
11
35.000000000000014
21
25.000000000000533
31
0
0
LINE
5
105
100
AcDbEntity
8
0
100
AcDbLine
10
35.000000000000014
20
25.000000000000533
30
0
11
31.500000000000014
21
25.000000000000568
31
0
0
LINE
5
106
100
AcDbEntity
8
0
100
AcDbLine
10
31.500000000000014
20
25.000000000000568
30
0
11
31.499999999999993
21
22.000000000000568
31
0
0
LINE
5
107
100
AcDbEntity
8
0
100
AcDbLine
10
31.499999999999993
20
22.000000000000568
30
0
11
32.725000000000001
21
22.000000000000558
31
0
0
LINE
5
108
100
AcDbEntity
8
0
100
AcDbLine
10
32.725000000000001
20
22.000000000000558
30
0
11
32.725000000000001
21
19.700000000000561
31
0
0
LINE
5
109
100
AcDbEntity
8
0
100
AcDbLine
10
32.725000000000001
20
19.700000000000561
30
0
11
31.499999999999968
21
19.700000000000557
31
0
0
LINE
5
110
100
AcDbEntity
8
0
100
AcDbLine
10
31.499999999999968
20
19.700000000000557
30
0
11
31.499999999999968
21
17.700000000000561
31
0
0
LINE
5
111
100
AcDbEntity
8
0
100
AcDbLine
10
31.499999999999968
20
17.700000000000561
30
0
11
28.499999999999996
21
17.700000000000561
31
0
0
LINE
5
112
100
AcDbEntity
8
0
100
AcDbLine
10
28.499999999999996
20
17.700000000000561
30
0
11
28.499999999999996
21
19.700000000000557
31
0
0
LINE
5
113
100
AcDbEntity
8
0
100
AcDbLine
10
28.499999999999996
20
19.700000000000557
30
0
11
27.274999999999999
21
19.700000000000557
31
0
0
LINE
5
114
100
AcDbEntity
8
0
100
AcDbLine
10
27.274999999999999
20
19.700000000000557
30
0
11
27.274999999999999
21
22.000000000000561
31
0
0
LINE
5
115
100
AcDbEntity
8
0
100
AcDbLine
10
27.274999999999999
20
22.000000000000561
30
0
11
28.499999999999996
21
22.000000000000561
31
0
0
LINE
5
116
100
AcDbEntity
8
0
100
AcDbLine
10
28.499999999999996
20
22.000000000000561
30
0
11
28.499999999999996
21
25.000000000000604
31
0
0
LINE
5
117
100
AcDbEntity
8
0
100
AcDbLine
10
28.499999999999996
20
25.000000000000604
30
0
11
10.000000000000018
21
25.000000000000512
31
0
0
LINE
5
118
100
AcDbEntity
8
0
100
AcDbLine
10
10.000000000000018
20
25.000000000000512
30
0
11
10.000000000000009
21
26.600000000000513
31
0
0
LINE
5
119
100
AcDbEntity
8
0
100
AcDbLine
10
10.000000000000009
20
26.600000000000513
30
0
11
-10
21
26.60000000000052
31
0
0
LINE
5
120
100
AcDbEntity
8
0
100
AcDbLine
10
-10
20
26.60000000000052
30
0
11
-10.000000000000009
21
25.000000000000519
31
0
0
LINE
5
121
100
AcDbEntity
8
0
100
AcDbLine
10
-10.000000000000009
20
25.000000000000519
30
0
11
-28.499999999999986
21
25.000000000000625
31
0
0
LINE
5
122
100
AcDbEntity
8
0
100
AcDbLine
10
-28.499999999999986
20
25.000000000000625
30
0
11
-28.499999999999993
21
22.000000000000583
31
0
0
LINE
5
123
100
AcDbEntity
8
0
100
AcDbLine
10
-28.499999999999993
20
22.000000000000583
30
0
11
-27.274999999999995
21
22.000000000000583
31
0
0
LINE
5
124
100
AcDbEntity
8
0
100
AcDbLine
10
-27.274999999999995
20
22.000000000000583
30
0
11
-27.274999999999995
21
19.700000000000578
31
0
0
LINE
5
125
100
AcDbEntity
8
0
100
AcDbLine
10
-27.274999999999995
20
19.700000000000578
30
0
11
-28.499999999999993
21
19.700000000000582
31
0
0
LINE
5
126
100
AcDbEntity
8
0
100
AcDbLine
10
-28.499999999999993
20
19.700000000000582
30
0
11
-28.499999999999996
21
17.700000000000585
31
0
0
LINE
5
127
100
AcDbEntity
8
0
100
AcDbLine
10
-28.499999999999996
20
17.700000000000585
30
0
11
-31.499999999999968
21
17.700000000000585
31
0
0
LINE
5
128
100
AcDbEntity
8
0
100
AcDbLine
10
-31.499999999999968
20
17.700000000000585
30
0
11
-31.499999999999964
21
19.700000000000585
31
0
0
LINE
5
129
100
AcDbEntity
8
0
100
AcDbLine
10
-31.499999999999964
20
19.700000000000585
30
0
11
-32.724999999999994
21
19.700000000000589
31
0
0
LINE
5
130
100
AcDbEntity
8
0
100
AcDbLine
10
-32.724999999999994
20
19.700000000000589
30
0
11
-32.724999999999994
21
22.000000000000583
31
0
0
LINE
5
131
100
AcDbEntity
8
0
100
AcDbLine
10
-32.724999999999994
20
22.000000000000583
30
0
11
-31.499999999999989
21
22.000000000000597
31
0
0
LINE
5
132
100
AcDbEntity
8
0
100
AcDbLine
10
-31.499999999999989
20
22.000000000000597
30
0
11
-31.500000000000004
21
25.000000000000597
31
0
0
LINE
5
133
100
AcDbEntity
8
0
100
AcDbLine
10
-31.500000000000004
20
25.000000000000597
30
0
11
-35.000000000000007
21
25.000000000000565
31
0
0
LINE
5
134
100
AcDbEntity
8
0
100
AcDbLine
10
-35.000000000000007
20
25.000000000000565
30
0
11
-35
21
14.401413114579025
31
0
0
ARC
5
135
100
AcDbEntity
8
0
100
AcDbCircle
10
-37.999999999999851
20
14.401413114579029
30
0
40
2.9999999999998526
210
-0
220
0
230
1
100
AcDbArc
50
296.99947016269789
51
360
0
LINE
5
136
100
AcDbEntity
8
0
100
AcDbLine
10
-36.638053219335198
20
11.728380947425723
30
0
11
-55.284955650553954
21
2.2275268059612587
31
0
0
ARC
5
137
100
AcDbEntity
8
0
100
AcDbCircle
10
-54.150000000000055
20
7.1921635313998422e-14
30
0
40
2.499999999999976
210
0
220
0
230
1
100
AcDbArc
50
116.99947016269732
51
195.00000000001319
0
LINE
5
138
100
AcDbEntity
8
0
100
AcDbLine
10
-56.564814565722557
20
-0.64704761275678135
30
0
11
-54.594412909992265
21
-8.0006867032534696
31
0
0
ARC
5
139
100
AcDbEntity
8
0
100
AcDbCircle
10
-51.514835816978547
20
-7.1755165081503236
30
0
40
3.1882128101338161
210
0
220
0
230
1
100
AcDbArc
50
-164.99999999998724
51
117.46608207120872
0
LINE
5
140
100
AcDbEntity
8
0
100
AcDbLine
10
-52.985314297037753
20
-4.3466662183003599
30
0
11
-54.150000000000055
21
7.1921635313998422e-14
31
0
0
LINE
5
141
100
AcDbEntity
8
0
100
AcDbLine
10
-54.150000000000055
20
7.1921635313998422e-14
30
0
11
-28.988337228011837
21
12.820214447690146
31
0
0
ARC
5
142
100
AcDbEntity
8
0
100
AcDbCircle
10
-19.908692023580329
20
-4.9999999999994191
30
0
40
19.999999999999996
210
0
220
-0
230
1
100
AcDbArc
50
89.999999999999943
51
116.99947016269806
0
LINE
5
143
100
AcDbEntity
8
0
100
AcDbLine
10
-19.908692023580311
20
15.000000000000577
30
0
11
19.908692023580315
21
15.000000000000565
31
0
0
ARC
5
144
100
AcDbEntity
8
0
100
AcDbCircle
10
19.908692023580301
20
-4.9999999999994866
30
0
40
20.00000000000005
210
0
220
-0
230
1
100
AcDbArc
50
63.000529837301954
51
89.999999999999972
0
LINE
5
145
100
AcDbEntity
8
0
100
AcDbLine
10
28.988337228011829
20
12.820214447690123
30
0
11
54.15000000000002
21
1.7763568394002505e-14
31
0
0
LINE
5
146
100
AcDbEntity
8
0
100
AcDbLine
10
54.15000000000002
20
1.7763568394002505e-14
30
0
11
52.985314297037732
21
-4.346666218300399
31
0
0
ARC
5
147
100
AcDbEntity
8
0
100
AcDbCircle
10
51.514835816978533
20
-7.1755165081503636
30
0
40
3.1882128101338298
210
0
220
-0
230
1
100
AcDbArc
50
62.533917928791404
51
344.9999999999871
0
ENDSEC
0
SECTION
2
OBJECTS
0
DICTIONARY
5
C
100
AcDbDictionary
3
ACAD_GROUP
350
D
3
ACAD_MLINESTYLE
350
17
0
DICTIONARY
5
D
100
AcDbDictionary
0
DICTIONARY
5
1A
330
C
100
AcDbDictionary
0
DICTIONARY
5
17
100
AcDbDictionary
0
ENDSEC
0
EOF
